<mxfile host="65bd71144e">
    <diagram id="KqGvIRFhO_OHiRRsd4W4" name="Page-1">
        <mxGraphModel dx="1176" dy="816" grid="1" gridSize="10" guides="1" tooltips="1" connect="1" arrows="1" fold="1" page="1" pageScale="1" pageWidth="827" pageHeight="1169" math="0" shadow="0">
            <root>
                <mxCell id="0"/>
                <mxCell id="1" parent="0"/>
                <mxCell id="11" style="edgeStyle=elbowEdgeStyle;html=1;" edge="1" parent="1" source="7" target="4">
                    <mxGeometry relative="1" as="geometry"/>
                </mxCell>
                <mxCell id="12" value="Запрос &lt;br&gt;на генерацию&amp;nbsp; &lt;br&gt;изображения" style="edgeLabel;html=1;align=center;verticalAlign=middle;resizable=0;points=[];" vertex="1" connectable="0" parent="11">
                    <mxGeometry x="-0.0502" y="-1" relative="1" as="geometry">
                        <mxPoint as="offset"/>
                    </mxGeometry>
                </mxCell>
                <mxCell id="7" value="" style="sketch=0;outlineConnect=0;fontColor=#232F3E;gradientColor=none;fillColor=#232F3D;strokeColor=none;dashed=0;verticalLabelPosition=bottom;verticalAlign=top;align=center;html=1;fontSize=12;fontStyle=0;aspect=fixed;pointerEvents=1;shape=mxgraph.aws4.mobile_client;" vertex="1" parent="1">
                    <mxGeometry x="230" y="556" width="41" height="78" as="geometry"/>
                </mxCell>
                <mxCell id="9" value="Sber" style="swimlane;whiteSpace=wrap;html=1;" vertex="1" parent="1">
                    <mxGeometry x="414" y="150" width="360" height="230" as="geometry"/>
                </mxCell>
                <mxCell id="6" value="Giga Chat" style="shape=image;verticalLabelPosition=bottom;verticalAlign=top;imageAspect=0;aspect=fixed;image=data:image/png,iVBORw0KGgoAAAANSUhEUgAAAMAAAADACAQAAAD41aSMAAAYQElEQVR4Ae3ddXhUZ94/4JMEiruULhWoCy1aF7ZeulbZuiFVWO/Wqb5vdaXFu7yl+1rdXReoG9QLwRsoHjQhPnP/ZHuRK1fDnDOTmckE9v7+3QLnc+Y5z3nsBLlNgZa66+tnLjXaeI+ZZoZCy61TDqDcOsvNM8ObHjbRaBf7qX66aqlAkMsVyM1qa0/HusK9Xva5hYqVi4sqrsxqi3zmRWNc4jh7af2vAMIrX1cDXGC8aeYokS4l5nrTGEMN1E3+vwL4YbWxp7OM85ZiNTKlxmpvu88ZemvtXwEI5GllP1d41CJl4rIhrsx8jxppP6235QDy7W6EpxSp1BgqLfaEYXaTv+0F0NHJJilUrbFVmWWyIbpuKwE018sobyiRS0r8wyi7yd+6A2jmAHf5SqVcVO1rt+lru60zgGYOco8FYnJZjSUmOFizrSuAAv1MtFRTsdREh2i+dQSQr497LBTXtCxztz3lNe0A8vR0pfnimqK4b1xpJ3lNNYDWTve+Ck1ZhbedqWXTCyDPfqZYb2uw0RT95DelADoaaba4rcdcI3VuGgHk6e9xFTKiSok1VlriW/PN21wLFFlmtY0qM5V7mccNlJ/rAbQx1CxpVK3USjM8bZybXOaXjnWwvfXSXZfN1cPu+jnKqYa71jhPmWGlUjXSKK7QMK1yOYBextogLWos97a/u9JJ9tZDOwVJvHa01cPeTnKVKd6xXLU02Wi8XrkZQJ7BpolpsNU+MMn5+qZl7iRfN32daax3rBDTYDHTDZaXawG0MlyRBolZ6U3XOlJneRnpGRziV561WJUGKnKpVrkUQDe3Wy9lcetNd53DtE/q0ufZTluddLOTfQ0y2LHf19EO0d8edtBFB601k7f5TtnfKC8oFtMAG9yuW64EsLOHVUlRzHx/c6Ku8iNe9Oa62N/JLnGT+z3jPd9YbJmV1li7uVZbYalvfWaax9znGuc6zl7ayhdo7XB3+VK1lFV52C65EMAgb4hJSaUPXGPfiOO/7fV1mls86VPf2iAuOZXWWOBd/+E3jtdLSzu70KtKpChumkGNG0CeI8yUknLvuVSPSI+XPZ3uXlMVqZYepWZ5zmhHO8BZHrJcimY6Ql5jBVDgFIVSUOFdl0S4+O3093uPW6BSJsSV+tRkw43wkiopmeWnChojgGbOsUTSasx0mR4ht01ze7ncM5aplnllZnlblRQtdo5m2Q6gwFArJG2Rf9M75OJ3NsTfzFOpyVhhaKq/gtQv/ypJKvGwAxP2dfLsYrg3bJAJlYoVme1TH3vXuz72kU98ZYHVDQ97VaoRpPZyea4VkhL3pQu1Sfg/3dXVvlAjfeJKfGemh91lpNMN1teuuulgOy101E4nPe3rKKe70v3esUSZFK1wrvzsBPBTiyVlo/+wn7yEd/7VvlAlPWps8JWHjXaq/XSMuES6ufb6OM/9vlEuBUucko0AjjBLUuYZlnAFYCcX+kiVdKjxradcb7CeWqfYP2xhF+d52EpJm+2ITAcwyExJqPaigxJciOaO9pxSDVdhlgcMtW+alnu2dLgpVkjSTIMyGcAupkrCBnfZIeHo9Z1WaqiYIg+50G4K0r6I70iP2iApr9s5UwF085CYyBYboWWCH/rpPhLXMCXec60DMriYra2LFEpCzEO6ZSKAlm5XJbJPDUlwR+7gdms0zHL/5dQs7LfIN8gbakRW5XYt0h1AnkttEFHcdAMFW6xDvK5a6mLmmehQLQRZqh39XbXI1hue7gB+rEhE1R7RO0HTc765UlfjG9fbJ+t777qboEJkRQanM4Bepomo2hTdE3Q5b7RGqqp94wa7yxM0QrVzk1KRTdUrXQG0NF5MJNX+bvsET/GJKqQmrsit9mjUHXatXGu9iGLGaJOOAPIMVxL58icYZO7tIVVSU2yygzQXNHJt51qlItpoaDoCGGR25MYnwd2/j1fEpWKT5xynhSAnqrXRykT0jf4NDaCTx0US898Jur/7mSYVMZ8aoX2O7SG/T7WIHtOhYQGMjBr3a3YSbKF287pUrPDXxnnkhlQ3f1cjkgojGxJAf3NF8mGC31oXj0pejWlO1EKQk7Wjl0U0S59UA2hpikjmOyzBcqhxqiRrpdv0FORw9fWxiKZonVoAZ9oogtXOlL/F4awbVEpOtalO1EyQ43WixSJZ7/RUAtjZWyIod1OCi3WhYslZ4TY/EjSBynOZUpG8r2fyAVyjWgSPJHjMH26OZMTN9AvNs3oRG7YWf5JIKv1eXnIB7OVrEXxqX8EWaif/kIwyD9ojq32Z81zQwDGl3t4XyVx9kgmgmb+IYFWCxq2t+8VFV+FGbbJ23+/sCu8q97mdBQ2qk3wnkrvlRw/gEMuEqnFbgtb/UmWSUeWeNAYQvvqiGmxyVIMPALhOpQgW6Bc1gGYmieAfCaYb+5kjWaX+mOH2P88O/lhn9UWNMwQNrO29JpIJmkUL4GBLhVrtxATNz0NSUeyiDI52djbcB6rUosa5ggbXCVaL4DsHRwlgOxOFirs3QfNzmXKpWeoXggxUB+d6Q5m6qHBcWibv/yySexSEB9DPYqG+sKdgC7WHz6XuG4elffzyWM8qU59F9hakofb0pQgW6BsWQJ7bxIWocFmCh9x9GuZDfdJ4TMuBHkjQQDyvrSAtdbkqoeLuVJA4gN19LdRrOicYvyvSMHFPp+ldeEe3WGjLqv0ubVFvb7oIvtQrcQC/VS3EOqcm6JTdq+FiHtRB0KBq7yIfqZbIN3YTpK1Ot0GoKr9KFEBXU4X6zwQ/24EWS4dKN4cPRYcseNwU7T0mbdXWkyJ4XcctBzBEiRArE7y6NPdX6bLBiBRHanq503Lhvkr7wMdPrBNqo5O3FEC+yVHu/+0SzHwVSp9vnZjCXXiuD8WEK/Nr+WmfrHxKBJPk1R/A7mYJsdaxgi3WKFXS6TP7C5Ko/U2xUTTPZeT0mdOUCVVo9/oDGKZaiFcSPBw7ekm6PR+5P9TZb8wVF81cB2do/dw7QlUbUV8ArT0hRLlzEu7cWCPdaozXPkJv/1DPqBBVqZEZm+q/XI1QT2n1wwD6WCzE+wn39l4nLv3K/U5ByMqZ31uYVKhjtRVkqHY3R6gifX4YwEhVEqp2dcIZ/BdkxgqnJHjvPsiTKkQX94JdMjrcPU6oaperG4A2HhFiScJH4n4WyJQvHLiFdv93FkrOJ/YRZLSOsU6oR7SpG0Bv84X434S7r36uUua8Yscf3GkHe0al5Mzy47SNMnXWbAu3xTShFtmjbgBn2iShsoQP4MANMilugjZ1etyXWyhZC52Yxj7/nVscyr5eXIgyZ9UN4D4hZumVcGLu7zKr1K8291z2NUWJZC13mrw0BvC0mVtYknCYFUKNUxuA7t4WYkrC6cJW3pFpSxwnsJ3TfC55q4xQkNYD0F7Hy3rWOxD4plDTda0NYKDVEqpyVsgSj69k3oeOc5c1krfU8DRvaurqQ8SM07beLnmo1QbUBjBUjYTm2DOk9ztf5sUUq5K8BU5J+56yHcwBm+odUzraWiFqXFAbwBghng3ZiXuAIrlqtpPlZeCFazlgUT09qx5mCDX++wC09qYQV4euFV4sN33q6IwMOwy2DsDUH4xY5XlQqKna/jOAfcyTUJmjBQmrj2/lnriXHZChUZ+hygHE6pnaGSZGhHY9EDjBJgl9pXfoyZWFck2ZBzI46HCjWqx0gqBOHWSNECWO/WcAlwjxtJahnbKZckuxG3XI4Le4/ktdL+siqC09fSzU5YJAgTFC3BnhjJ3n5ZJ5zsno16i29566KlxR99XUI0LdqyDQ0osSqnB+hFWXt8sVcVMdKsho9bcydLHareJCvKRVoKvPJLTWQEFo/VK1XFBisp0FGa6LVNcT/N113jbOVi7E57oH+lkkodl2EoRWHws1viV+k5VF7pPVZ0GdAftB1gmxUN/AT62W0Os6RXosPahxxb3n2Kxs7utphvrdVdvptYs5QhT7WeBiZRJ6MOLj7OdKGrnp2VWQlTrGBvWbXzvXqIs3hSh3SWC0EP8eeXzwFY1lrmHaCLJUt9iy22u/VOAhoUYHJkqoxihBxDpbieyr9JRBWTzQoIsPEj5Xa+fu/izUuMDDEtrknCTGyJ+XbYv8QWdBFutnNtqyytrTylwr1KOBNyW01glJtY5LZU+FZxyqIMsnBk2Q2HObZwiuUC3E1MAMCa1wYFJT1aNVy46vXaqTIMsV3t1etfk18CylQswIzJPQUn2SXJz3nMxbZax9BI1QV6mRWNytm/cQrxOiMLBcQt/qnfQ9MkMmlXnB8VoKGqF6+lC4d20vEDjSaiGWB2EhLdAjhW2bi2RGtbdcpIugkWqkKuHWOuL7d+HlQqwLlEtoXgr/3HynmC/dqnxslO0FjVZdTRdF3Ojv5wmXClEekP4AAnmO8bH0KfOWyxv9GJvLVYjmZW2jBSDlAMJrX0+q0HDFnnWhroJGrh/5SFQL7BstgHiEALo24Cd7vW+lrtI3Jjpeu+y956Zp/0+ln6crgEUNGl0vcJj/VixZ1eZ73HC75czRZfv4TDJujdwElUuoyO4N/hbFj91vrirhaqwww2Tn2TtDU4qpnwYRl4xn5RtguRDlod3QpfqmZTH3ni403nuWWKdKXK0qG600z2vGuszhuijIwQP6VkvO57o7wurwbmhYSCsdksb7qKO9DHGp691tjDH+5AaXO8WBdtAuZ09K7OZFyfrOAMdZK8SyQKGE1jo+Y8cn5QmaQBW4VqVklfupXygRYl7oYFyJXwq26RrsW6m4zPDw4GYEpkmo0gjBNlw9vSk1t7lOqDcDjwnxR8E2Wy3dIyY1j5ks1MOBcULcLthGK89F1knVOsVCTYwwKT9Z8200gIPNl2E3BC5VLqHntRdsg7WH6TKszMWBnymW0Bd6Cra56uQhGbfaTwN9LZTQKvsItrFq7z6VMm6hfoHuPpdQqZ8Itqlq7kYVsuAzXQOtvCyhGlduY5f/MmtlxYtaBgrcJ8R/yd+GLv+limXJGAWBwBVCfLzNPIabudgqWXOJIBA4VomE1jtkm7n8K6VHhbgQJY77ZwB7miOhuFHbSOOzUnps8rWYEHPt9c8A2pomxJNaCLbqauG3iqXLG94V6g2t/xlAYEJ4WHtv5f3+26yXLqtcbY5QY2rPirhAjYRqtupB6a7GqJA+kw1VKUSNobUBDFAsxPNaC7bK2svjqqTPfAe7T6hVBtYG0M10IVY6fKsccD7CO9Kp0tV28oVQb+tWG0BgnFB3yN/qHrxnmye93tbdz20Q6t66Z8adpUyI2VvZg7iz0dZIr2InyzdGqE3OqBvAnhYJEXOLPMFWUvt5XLl0u0eBXmYLNV/vugG08ahQhVvJb6CF03wh/d6zo8BwFUI9onVtAJF3lMXdKmjy9SP3WCP9lhsi0M5TQlUZWd/h3UVCzTdA0ISrwDGmqZZ+Fa7XXODIKOEW2e+HAbSKEh1TtBI00erhZktkxmO6CRQYK4IntP5hAIERqoVa72xBE6zt/MxbqmXGp/oIBPY1X6hqwwT1BbCHwsgfFmlSla+P+xXLlBWbJ22vEhNqlt3qDyDPJJE8qnMTetft7jdmi8uUUqMUCAR6+VwEk+XXH0DgZBtFUOnWJrJYq5VTTVMucyr9RTuBQOBKNUKVGCLYUgAdvSGSYsMUCHK6WjvBI9bLrId0FiRz//9D10SfMvyVKpEsd7a8HH7VOtLD1si0V+26eTrzZtVCVRslSBRAL1+K6Dtn5eTwXFvHesBKmTfdXoLva4CFIvjKbokDKHCXePQILsixbUVtnOhha8Rl3pdqX0qbGwdRhhLyEgcQ6GuByFa5PGdezLq5wDOKZcdXdc5MP1GxCBbrJwgLoMCfJKHUn/Vo9Bb/AKN9pFy2fFnnk6bdvSiSCbZL+qP+4aq95NBGehoU2MGp/stiMdnzpSPr/B2uU5nGj/oHmpkoSQtdpXuW3247OtLtZiiTXe84RN37daFIJmoWLYBAPwslqcpLTsnKVo48nQx2vemKxWRX3Ov6qPvkeUoky2pzCw8g391SsMGLTstgCM3t6mfu9r7V4rKvypP2qNtYRG1+4u7WLHoAgT7mSkmpV11sV9ul9Z12F0e5ypO+Ua6xlPnrD06OOckykXxtT0EyAeT5vUopqjTHZOfqrbW8lNv4Nrrq43S3ecLXSsU0ppWu0u4Hb63vi6Rqy1ssEu1Qfl+DlFngcdc71f46a6GZ/IQXvJnttLGDAYa41J2e8InljX7hga/98gctSHsPiotkup2SDyBwuvXSoFSRz71kijv80RXOc5raOtswl7nanf7maR+a7Tvr1cgdNV50YD1dxetUiGSjMwWpBNDag7Z5a9xu+3p+r+daJaIHtEwtgEAfs0USV6ra1iZmptPr7U4MViSiOfoJUg0gMEqFSAq9aoOtyQYTt9B16e9DEZUZKWhIAB08LpIqT7jaV+K2BnGfOXcLw4z7eU9kj+nUsAACA3wTNYJJjjLWOk3dSmPsIai3dvG6yGYbJGhoAIFhNkaNYIxuhnhNuaaqzItO2OKM904eFxPRRsPkpSOANsaKRY1grA66GWmGmKamyicJj8TfOZnLHzNOS0E6Agj0Mk1Ele7XVWBX/+5bcU1F3CzX2DnBLbu3l8VENlUvQboCCPxYkYiqTdFDoJkD/MlCcbkubqE/2Sdhe9HPO5JQZLAgnQEEhlsfPYKn7CsQyHeAO8xSKVdV+cL19leQcJjkSJ9IwgaXykt3AC3coUpkHzhI/vd//V39xsc2yTUl3vNrO4bM5jVzlvnJZXp79O9LJDfr/ZCYyAqdsXkAK8+PnOERK8Tkgphl/tNpuoZOpbZ1pRWSEPOQboJMBBDY2RuSsMINOtYZXDrQTT5QojGt87bRDtAi0j94kjJJmWYXQaYCCAwyUxLKPWLfH3yL93h/9pENsiturffd4WhdIs5IHOMtMUmZaZAgkwEEjlAoKZ86S4t61iyf5HbvWKFKplVaarobHatL1GejTn5riSTNcoQg0wEETrFEUta4p97fZYGODnKF//CJNRkIolKxD/zNJfrroCCJaf++HlMuSYv9VJCNAPKda4WkxLzrDK222MHq4WCXGONVX1mrRlyq4mqs8bUX3etiA3RPena6k18rFJekFc6Vn50AAgWGWiVJ60ywf0gT0F5vBznL1f7mVZ8o9J11qiRSab0lCn3kZZNd7RSD9NY2xXUXR3pauaStMjS19fqB1CNYIWlzXGWHiM1AM93sYZBj/MK5RrraaLe7Y3Pd5EqXOd/PHWOgPXTRTF6DVtnt4x4rpGBF2OVPfwCBZs6xWNKqvOUcnVJckpWvtvLSutirhysViknBEudoJsh2AIECPzVbCkq95iydcmj76iXeUyUlhU5pyGahhp/2MlNKSrzubN0bff/kbq7wnnIpmumIhv0UAw2tQaaJSUmZd/zG7po30ga+/v7NLDVSFPNG+GtX5gMI7OIhlVJUrdB4x+osL4v3fQ9n+G/LxKWsysN2FuRCAIGubrehYYME01xjgDYZjiFPB4Pd1vBF7evdrpsgVwIItHKpIg0Ss9SLfu8o3TIQQ4GdnOxGb6djZXWR4enamZXOm2tw+NMgXFyxj01wrn66yU/DkvaeDnGJ//GFEmkQM83g9N0hgXRWL+NtlBY1lnvHFFcZYu8kP/PWXEc99XGWWz3iE+vFpckGY/USpK/S37UYplBc2tQotdIMz5jkZiOd4ViD7GdX3XX5vn5kV30cboiz/drtJnvZl1YpF5dWswzVRpDLAQTyDfSYMhlRrdQay32nyHzzvq+FinxnlXU2qZEh5R7XL/0Pp0wdSDjSHHFbi7hZRuooSH9lrqvdzwM22hqsN8V+meofZ/YzdGd6W6WmrML7Ts/kqc2Z3lG6s2t8I64pipvr93pm9t0wG9t69/QXyzQtcQvcrU/mDwDI1scpDjHRd5qK70zQLzsnUmXzAy0Hm2CxGrksZoF7HJS9U3iyfXZkX7f6WrVcVOkrdzogu0cgNc4cyCj/UCKXbPS6UXplf2qi8b4aMsRks1RpbNUKTXKyjoLGqMaeDxzmCUUqNYZKRZ4ywu6NefRdLpwuuZ+RHjXfJnHZELfJIo+63H5aNfbRj7lzyGdvZ7jX21apkSk1VptunDPtoY0gFyrXDnnuZqChxnjDPKXSZaNCU413gQGJtgT8K4Daam0fx7vEfV7wmYVWKxMXVVy5Ygt97iX3utyx9tRWkIuV+19caKmrfn5qhNEmetibZphnmXXKERdHuXWWKzTDVI8ZZ7RL/Exf3bXM9ROW/w+cbP2W3/JoQgAAAABJRU5ErkJggg==" parent="9" vertex="1">
                    <mxGeometry x="24" y="60" width="80" height="80" as="geometry"/>
                </mxCell>
                <mxCell id="10" value="Kandinsky" style="shape=image;verticalLabelPosition=bottom;verticalAlign=top;imageAspect=0;aspect=fixed;image=data:image/jpeg,/9j/2wBDAAQDAwQDAwQEAwQFBAQFBgoHBgYGBg0JCggKDw0QEA8NDw4RExgUERIXEg4PFRwVFxkZGxsbEBQdHx0aHxgaGxr/2wBDAQQFBQYFBgwHBwwaEQ8RGhoaGhoaGhoaGhoaGhoaGhoaGhoaGhoaGhoaGhoaGhoaGhoaGhoaGhoaGhoaGhoaGhr/wAARCAGMARIDASIAAhEBAxEB/8QAHQAAAQQDAQEAAAAAAAAAAAAABAMFBgcAAggBCf/EAEMQAAICAAUCBQEGBQMCBQQBBQECAxEABBIhMQVBBhMiUWFxBxQygZGhI0KxwdEVUvAz4SRicoLxCCVDkhYYU6Ky8v/EABgBAQEBAQEAAAAAAAAAAAAAAAABAgME/8QAHBEBAQEBAQEBAQEAAAAAAAAAAAERMSECQRJR/9oADAMBAAIRAxEAPwCxjKSUDuBpDMvmb2arf8yaOCCZJG0wwohEim1N2N/TR9qw3yy0R5krOrHUA40iMj37EYzK5u9ZZ2Ei99RA/wDMa5J+nxzjsDmlkiJYSMqGPSaQbEXWk97wl95kj8xoNTigLOrkGiCbvA2YCLGERkZqpWjO+wJPB+nP7Yb5+ouWIkMkZDVpXYUK3/fnEDlNOzuvmRrICqsAp2Whv29X98L5iqlZZA0nmGjoI1AAENVb/T4wyLmGmKmNQp0nSziwKP8Az9cFrnDf4WUMCA42Nj59t+MNBImA0r5pU6dSsDZPwAfevywW0sh/lktaGpiBXBZh8m/zrbAKyLJokmYq7bMwNsyj6fHvzhHznjYbsVBDeXdltzsL7/nheB1XMRIQgvUG0q1CzXcj+/YYI++ea0RRtOh1J0sL1cVXcDk1zhkactLc863qcgMDajkAjtzjFlk0rEB/CcEkhqWwO4PzjnrUSXL50PI+p1W22Cj8YurIP02wYufjdS8cgUJs2omiCdz+f6DENmzHlzFrCAgGht6eOeDg7L51/u8rA+XYB9KmifgcXVD88NaSY5rW8jIjn+JcjemwOPphZXZP4YAIoAKOKI7jtz7jEcGY0xAwyhNVltvxKdhzzROC4sy6QrGCSeC8f8p42Nb7fFY181mnlpxLG7yMwDlVBRqJJ5qv+b48mzjtLKTqhkdRuaWvk0OcN8mYLDUV3FjzS9X+v/NsePKRpdQgpjosAgXx8/ONaycJs7CF8yNCl2NLgLsPf5N4yPNGOHzJNgtggup1AcfH6/OGWXOSOYywApSeKHzY/wCHG6ZsvCyWVid9TAcbnsDg1Idoc2JMp6CYw1sQQNIHz9cbLmP4qKilmAFAAi/fbi9ucR6bNZmBhIXeOH8Qe9OwHYHbvxzhA55nIdNUhjrR6Td733visF/UlzGZOgL51FVYk6BfPq34v/GAmk/8JEkLllLFVciwePbge+GmXMuUFSBCQNfpqz9QMaRZl1jCFZERKG5b1AEj3vtiKfVm0u+ZR+AA4O4VjuB//j/zjBUOZEwm8tgHKlaKkb378ducMeVzJ1G2ai1kr3Fdj3H9MG5FgXjWJpGKgnWffUf02wDtBmm8vQ1yggnUALHzZ/5+WDfPuILRlTSRYo3XxuMMWUJU0ZdZAGzIfSN+4waMxIsZBTU7Lag0K22/pgl4LlzAkYK6KrbE24G3t9awPPmY2eQOaUJ6gdh8mxvdHApllZEAAqtxyxNX3/PAMkckTSFQGIpRz+Ek7XzdVvjTBxOcSGFNGotrJJIuiDsR7jt+WBGz7PIzh1pdOk8Abb7fNH9cB5hW1mNWJkZj69IqhwDf5/rhvRZFJZX0gsNB2Yg3wR74CQDO3IrTINIsaS/qY0K+nxhIZtCxlmVAoXfVwRXNbb7/ALYZ/vk1FA5JdQQxuhvwR/jG6THLvJIJEYAlSBsBdb7/ACcBKxmUkYiR7kABZuWNja/bbCEuZ/iaZt3vUSCUBO/thmgmKykLOhKNTMOfgGucITOzzkGYqE1Up9r33/I4B5L5dyWKsSdz/Ff/ADjMeRmZY0AlSgoA9ZxmAgej+IBEEY3Rsmztd37YVy8ezOJvLKkNrAq/+dsIsp9TRgAbfjHeu3749kZVhj2GphXJerHN1zz2+cArmUCEKJCqyeoBWpiTsd6+BhtmeOaVmU7lfxA0AwO4o8jCzB9MagrYAZaJofnW2AXUmQFLJDAD3B9yb5rGLRsspLCM6UUWQhNtZ7/P0/PDjEhVFH/5DtsO97fTAEBLzEHSasn45Ar55vDnl2UeYkUihARYuhfYYnz0bSEaNcrH/dYFg+303wLJIpDMFAKepCRZJ784LqMH0gaNZAJJ3O17dsCyKruWlcM5UBio5Fdr73WFGiyLGvmqbJA1FidRPvzuDjdpP4UTEWU3ZTv+Y+djhOJNS6JEDMy/9Nd7sbmzxeNhJGspVlYRglQU4+BQ/vjLcLJIqopk1ahsEYbij78cYUVrdCsdprawTz7m6/pgYZYFCYgrBC1DQebo2Pz+mCCwhKArrEYulbdtx++x3wUYMxKR/Ddew1XenihYwVl3JBQoJGDBr33B2rc8f3w2RGKozGwfSussp3A43wWZWjyysh1II1th73yBtxgzR8k+jWHI4XYbG1H7/lhOXMHLshLroWyVJJs/5+DgaAlZPU2oalP+6x2+Nv8AGNZiRpJU2RSiSmB+BXzf0ONay9kz6mMKWDaULKy2NRJ3JHvQ/PGDOqz6XjAr+fQAKI2H98ISgQMFVaYgl6G/uKvbnA8kqabTWJCwB5qqv6XhtbzwfPnNUDSKK9bGqvbgf5/LASZllY+XYkOmyBd0RZsnc84GYvwRUeygjsO/+fzwnJPqaRw2pbBKk0QBtW/e++MkmHYSMuv+GEoEIaFJvwfjG2VzCgEfiOnUUcjcij+XfbDaMw1hlKqNHLbaSfphZW0quyUq2dR4A3/XFningS3JAVDHew/Jq6vbg7jB8GZjDO0p0OjW1miRVij74YEkZ1islf4lLpXcd98Or6HzEYJAawocEk1R3rvuMal0O2QZljZ3ZvX6ko1bewOC8xNayI6FdKk6v5gT2vnv+WGyJ2iP8MqXIBVveq2w5sXqOQWrcNvRA5o9u/OKzaS864gBa2wDbksp2r6d8eTSyooZiuoMWtmBGq9rGEmJQIUKGJn2BFEiyOPz/bHlLTCRxNQq9W5HtXf/AL40yGVJGEt6mkQEMF0jccbHjjAkyecoZULiyDvRsixY2rYV+2HiAR0I21llBJuqrbv9BWB5UWALejW49Kk2Bve/6c4BnzAUio1OpKBagSDzQ+N8bJIo0xyBTqW0PJNb/TCuYi0OyqANPABHYbDc4RYiRC2sQkqNwQRW3x3N/wDKwCsESz6gNUahQbQimI4AvnbDiYQktoqu7R6rY2oB9gcN8Eqsuj0CLYgkXRBo/wDbCsRaJVMkY8x10sAfVVHe/gAYBfRWxkP/AO2Mxi5kUNiduQR/jGYCO5lF1MNTszJbfw7I+DtXGG3MMuu5BalQCb9jsfr3w9SsqiOo40UA0wFHkXx3r+mGmc2oEqyojmqBB49x81z33xKEI3lKuyts9KCtAFfkf2+RjWXYAPGiXQbbaydyPpxgjJRebmED7ABvVq3Ir/O2N5QFjoBlNctz7cWcY/nwCZcTFWUiNG2Ea6wb+o78Ye/MsFTWtBRAsf8ApA9+P3wBBlpKXy1R0AsHT3PFjt9cFM41UgMlfiQ0WG3v8G8a+YBzMWkkjnf1E2y3uP8Ayj37f98blI3SXVIAyqRI2kDUCBVdyNuPnGwLiRAFjoJsdgLs7/FY8TUj+gK6ru2n0AHuD7jncYxegdstSlpGXVVtoj5HYUPj8sbtEEZW0nU1Aqfw2Ob2/f6Y3zEghtnJiVyWjDDYfT8gRQsYD+8B5bYbcWqEgE++35YjUokpdGQeWVtQFQ8nf9cCvHKzsi0xB5HJYUd/1OCGd0UtDIAt+muKr9z3wM0jVRcRmip9G/avrg0JEpUIEmoRimc+q/p+p/TG0M4OxdQY30liRTDmt8NZeJgyDRqoBrU1W11X64Zes+LIvD2VaTMaXzLozRJfqlb3JG4Xj+2An0eWpiyKzK1EsBsN99uBhoz3W8nk5W/8THJqJDBcwignfY8kce1bc9sUj4j+0HP5+P8A8XmgsYOnRqCR1po+m23PyDtiIT+Kozqb7okzWLPnMQLAqwF257D3xnUx0YfEcLurxmCZd6Ec7NpHb1BTv7YWPV4MwoSYkP8AhrUGv4JBsduQMcv5fxLAHryjEV//ACMokKtsebBPJw85TxnLGwXL9SeRkelWaW1PPq0kfAobc4m1XSBhOlEhYEXd1vWPWTREUlIIAs0N1PfFU+D/ALSY4pIMr1ZWOWlHlrIqWEJOxr/b/Q4spOudNmjVsvnoSzqKDyhA1g7eqiD9OcX+gsYzqUazKCvr7biv2Bwqk6vGvpAsaiVN7juf640nkaZVR1bS1FiwrR8j9OcaQt62i8wE6L2HY7i/f4+mNB3VX0Jr1Cz6dII37bdhhwyrI3ml111vQFUe9YZo3eNWM5NsaNEc0Oe5+fjBeXn0vHqCva7sD+Y3G/bbASGEIUh0SNp17uTuwI9u2HBoCUHmNrLWRqO4YcChvhnyOdE0enc6hqIJsg/PFG7w55bPQyh01MNQtpGIG/fng43GbGkwCeYbTzGUmgDv/wC3kc4QSMiMCJjHpBFkbDsD71zthVpI5UZ4GB8yyolBUA8EgDkmv2wOrsgIVxpRSwLNr0kdz79h+YxtlvBFKgatkLHUNgC3/AP398JSmTMDTGxEy0rShatdt/phQZjXFcSR6tRLlid2G1gDjb/ONfNSHWruqu2+rmu2/wDjvgEsxE6nzLsx2QoBJVjve30A33wPDGJajcx6DWlNFWvYV8cb4UlzUjSByXWLSaogHuTt33/bC8KsyKQCZGj2lK36Sbrc3fz8YAHS8UmqnfUoG1Aj9ONsKxZUhYywaJwDGqqBZrmt8ExwekE+YSnp073VbH2OPJIHjCsmg6nBpEG21fp7b374BIPIopfOIGwPmAYzGxkdCVjLaBst81+mMwDfmWaRESR2jFCqoEjbaj8UL/PDfIksp0KgkBaiSpIq+COMEzGKNVBJjdobAB1V+n/pP9cJBLLlDokBDrZqvY/vgNDC0a3xINRK6Cba+OBX17/lhTyllJaPZXJa1Nljf+e2NEkM0yIWRVHNj5qqPJ+cGhI3jUeYpKrsyC9yd/bge2AT8p1jjdFN+k6zStRPt+36Y9ZNICateoFjZqiPY4I9RARY1FDSFB0gG7uj7jtjTWmY21kLR9Ox37EG+MAFJE+YDaiNJIP4qJNVfzjbSgG4QAqKStvcUMHTQRxlmkRgdDUCvIrfb3HfDbLErhUQJ6+FPpLaePrx89sc/qXR7KUZVA1uF2UEFq4O3tv2xq8h8tQqqrKxYqH1E9/1xqjqh169TMCRtt29P7bk4G8z+E40soJFHTuOe5xlqE5Vjk/krWfw+447n+hwHPMsbfxCWkfi2HNfqMEtKFC+VHZ1aRS+xO+A5S0DyPKiyCM2okIAHtqxGkd8UeKouidNkzEoHnSHTFDNXqNd9vwjnFBdf8USdRzs2YmcNKxaqjJsb8Xxz+uHz7V+vTS9azWRSW8rlHMcaqwC6u/HJ3I29sVx6ppFDuZTIvpFE2b/AKfXGbQWc5O9rrFWGU1v8aR33x5rVr1kSxsLZbogAgjfsSRx84Gy7y6iE0Noq+zA0BXtyNjg1cuhCK8uh6Oz+o2DsDXerxGiceWIEbM54r1NfpsgV37nB0eUZGVnVFAAC0RsTRF++xOHbLdEljOVlVXVi1FQNV7DYkHa9z7H64fv9KgmykozmqFtVxMVIidtzp9weDX7d8Ee+DfDDde6hF02OfypZQUSdgxWM0aJIBIAoXztfth8z/hnqfRlzjTRskmXjDFkmLAnglQDx6hv2sHDcniKbpy5GbJjy54lVZozqV4pkJBZCG3RrujxbYmHTvGcXVs1HnZvJUvIkWYUgk0Y61EizuVrjb0++CGTo3ivqvSZQmp5y6g+S29m+21E0PrzifdE8WwdXZMux8jNsTpjddPm+yofpvXP1w3Zzp+SRpOrdNywYTZvyZoWFRwMVNnkhNVAD5w3+I+lrkMpCIMpLDnICrvOZQ4aLYqxHNXvY3B3vAWfDL/DLnS0rEmzdfn+4wVl50zEi6VsIGSkFWDe5353NYhXhrrkvU8mssjh54UIkAY+o8hgf5r9/g4f4TI0h8ojQdtRogWLrbirv8sblEjy0sPKG4mNCxTcbEnjbBplAVHjYonclqB9v7/phiybUVKEFHN2AL7E/S98OMUkYjRPN0hnsj47n98UOEmoGORJPMlUHTRs+rgKQfUd8el2iiLayFsEsqir73hokzCFlXy3WuDoujfc4WEiLGyzjSWfcHuD7fTvjolgmeVokUzuUA1FdIq7/qMENIZFCvWoUCAa44sjt89sCrDEXXfSH3CsL57V7bYxpDIJontEQ6QgO3P4Qe+KwyXXqcliwBoLr4PevjncYJycgeIoqSGA+ukagAfcf83whK0Uh9TsxGzhDXF/H1x6VYNpcuAy0BR99/r23xQVFOqGVj5oWSipqypFdvesGGRo4SWXX6yS+utanv8AG/6YGj8sxKlFwWZmIrbj+2DIlBLJmLCOLDBQNW++AXCBgCQBYuvOxmEtcq7K0RUbAtCbr52xmAjzRIERaMS661agADtv73WB51LetJK20gqvqa72962wY0xWMOVaSQEEBmBIB2/r/fjAHnRI2wVAFBYkH8Xc12H0xApl5UhkQGiBdWvv8m9iMeo4Jk1IRRVSw4Yb7e47Yb5M1EiiMKrncqqtqKfTv7Y8iYsy6GKhjbFr1E0DXFn9MZ/oOiyRyOZEFHVoc929ufbfCkZYyHcjQ2kLsx42/P8AbA0AZwXb+W22JpSbFA8kcHCusPIsoXTrQgMlbkXWnbveNS6CpnRmRwx0hNKuP5rNnY7384EnyzKkjyaGi8wUCN1obW36e2DSFWHSHWxzwewH6/ngKTMVKIpGdF/8xsA0RQO94l4G0yMGmREtQLL0PxE1Q/rze+Nc3PUGjQqNpBs3XO4H9frhKR1RmiSvSbYAFAL7127bYA63nounZFs5mQdUQJQt3YkAX8d/yOObpCGf6xlcrGvnyFdxuq/h+fr8YqfxZ9qr5LMHLdClgkg8sMG3bne1PxQ24HviG+MvE8/U80XEkxiFxqnAFkWTXfv74gGdzILu+ZkDBm1Oyre1XXtyaxi0OGfzz56SSRyDM7kstb/7if1/rgVKbc07rTEEgD3I37+2G+R/MSU+lVK0jqSNJ7kj8/2wplpIXfyo3QG7u+DQ+cRo6xRrppSpkY7tpLadXc+30wrHIiUHQohfSKAqrJ+pv9sKw5CfNNAiy+ilFE2BY/CB3FnnubxM+g+Ac31GOF5IzHF5dUTZAN+mru9zYwAPTJh5cceZykbOWCq7kh47XcqQQQNgbsgWNjeJZBnEyeVT/Tp8w2VnBR9Xlvd7lW9JDAHdWUh1335GLJ8CfYrFm2y8nUtMeXDrIodAwfvuOR2IB44xenSPsp8MZKpF6bl3eiNRQHve141PnWXFMnRp8+0kcUTT+Zx93TzUYg8jbY82O4GNMjFPkM4HjeSFlcDy/wCJl9HyHX1Jx2NjH0Dy/h/p2Tc/d8qiBWJGkaaBFE/2xmY8K9LzoT7xkoJWpmUtGu/t9cW/ODgifrueghjlaZp0fVqEjeZ5kbdiW53s6jvg3K+MZs2+Xy2akeSJUAiZ21mMk125A+K237Y6u8XfYV4a650yZenRHpGaO6S5f8Gq7oqbsb71jljxf9m3W/A2ZEHVck6rKzLDJFM0kU1b2DpFWDwdx7YzZgkPh3NzZbr2cyk8D5N49ACmIoSGtgaJIN8gg1R2xNocwIiAoGryzYD6aBoih77YpnpPW8p0HMSTZuSWdZIR5MCNZVQwOjfZVs8fpiQZLxxP1Cd//tLxxoQKWcqxA3agfb++EuC1Is1GsvllgGDqoSixPP5b2MPlaib9cnYWQN9jiBdF8T5LrGfdfRDnUonKyKFcEL223NDarxKkzUZCB69dql2Ntv0/vjUuh5EbAMwKuVYFyX4/LvX0wRoMerRMTYprAbWLNn9NsNRzQQKQ5bURwTfPN18YXjzOlQwNOEA9I9NG9x/nHTYl4cAoUEaA6lvTXBIHt774VfLiWVEZzO0ZBKMoWh2O1e5w2STrNqY2CG3ZAFB7X8n64LWaN01NoZA5KkV6fk/PA/PG2GwURsofUQoAAs1Ve/59/fBGXOlVIs6jqVgbPyCea7fTAckZDagqiYqAFZz6m9iAfbvtxjaESQsI9QBFKq3rJI4/YYBwiiCSCOtQUm14Jveh+Xb4w6wSJIh8pD6iPSSar6VthrygMjIVVQjAhQSGJuqut/f9sLmRopgELq2sW1nfeqr2wDr50S7efVbUQTjMBGWUknST8it/3xmAiuZkdFLOAgrTdD1Ke4/O9/jDdJKqsuhllEXpBVqr6X7HnBs0Z1hQQ1AFrcb+2AkjlMasVBAs2m4O3t2xKBZm0T6AdJJttAB4va9t98bZKaZEljKeY5GzDlTQv6jscaT0J4/MChSux778184zQglLSEK6EEgigSNjtfsRsOMcgXEZ0LkJalQAAaKgbBfoaO+HOBo8xG0gBVhSAKTQF/qe+/GGyOTUwOpC6qQvmC7NEd+e/wD2wvHmBG40uyMSQBXzxtzgD40ZwsOsiPfVdU3fUDyPzvA8wGhVmpVlG9ekqDx8jfG3ns7SmFXJcWOw08bYAZmYoqm9QAKarHBFEn4rbjfAaSwxupKGmtg5AG1k+3b598Vj9qPX1ynTWyCMIZJFCOA3qogatV7LQFfniwJ4fJYO8vlRuKYvsCdzyfbfHOH2k9f+/wDWpWhLtEkflqSQDZ/ET80R+W3bGa6RCuq5zzlqMuzinIIql4AIPwbvDNPKQ0kLadQWiLsWN+BtzWC80ZBLTEMWsvuCe37cc/Jw2uUaYgSMVkJUlQDtwfy+MZWPVlleUbEheATvZG+r87wZloyX/FpCsVo0aPAr9/0xkeVLKXmYLCWrUTud97/T/l4eOkJAknmL6pCTqLNRAN39OcFWB4Q6aFlgaT+JPIF2jiFKtEV9a44F4v3wtl4sqY4Mkjy5gAGSeyGPsG2C0u9gbjFAeHMw0Odi1SlB+DcAgb0CPm8dB+Es00uTaOSI5wOgClpACQOd/puPphEq1Oi5SbJoIpmEkhf0si+n99+9YlkbqkqCNysjKtEGxxXGIz0qQzwRmdCFFsjOdwPgj47HD3CyxqBGjRogIV6IVVJNCu+PRJiHiTNekDYFttO3/N/zxoHlfy2ZtTGhRN79vqMDo6FdYUmQMRY400Dg0EOnlusZVdwONvr+WJeDV5mWIK3rFkbLZBPOGnPZXK56CeHOwibLzE6kcekCvavnkHD+gLg6AxBI1b8A4A6jAmZgYtGCpT1BTVGtxfbGBxx9uX2W5zwpmB1Lp6PP4fsaXChhlHNaVYgfhJ4J4OKM/wBQl6XnfOV9ILAoD/MQfSSCOAffH0K6zknmhlheIZrLTqEly8o9LqRVC9tscYfa19n6eDet+VkUaPp09yZYu5qKj+G+4G/ueMZswE9C8TP4uGS6f1E5WVE9KSrCIpAx4o7cn3BG3bE2yHiDqPhTqy9K8WJ5SDeLMNTnSR6dwTq/Md9uMUPkpPuzwuwjtCoJIu15sH34798WlP13pXiXwmrVHkOqdK0gOMw0iyoOAw5XfvRxkXHFPGypKxWUGqZRdLe36Y2EspAkQl9AFg9ru9649sVb9nviF3jORmZXXdYrslQPURZ7Ed/jFlJnPOjIQrG90yg6itkkD60AfpjUocUzL+Vbencfh54ofTm8FZTNxkgDSCDvdDtX5fvhrXNvJp4KONW1E8cV25740jeRyqCQtybYb1ff98b1mpJDNqmCCIIoB1uLY78898FFYY4oZdX8QkNR3I2oYbIEJEfmtdH+Vr9P5frscOOXmkbXrcrVFUYatu4rtjpPWS2WBEm4TUpKsQNh3A574JDs5aLLKwk1lDr239/1/wA74TVY5VkMbhNXrIWgNuDv2r9cLhP4qRqb4clTYJI2H/OMUInp2oltLm97EbEfreMwQI3AASeAKOBR2H64zARvNqJJiAFVyhbQgs0aG/Y3gbMwsspVU1BR6Sr++3I/5WDpI9cjCUatgVLAAKedx3/74Fk/jqzRArpc6Vvaq33PNj8sShlnj86VY0CEA+mMUVq+RZ2wlJolkLEMGEmj0r3A/XfBBaOYxGhImk6EC0OL98CCL8H3VNBJFkVpWz7dscgQuuO/4b1Y9OoHTYG/z9MFQjSumZAZEsalAo7fnRwHErRGmCybEWxCkGzXz3GNnuR1kXWxkJCknR6vj4wWwYyLGokPqWgBZ7ckVW/YYCkzcL7qV1gFiSu6r9P03x40swVAurSAV0WKrk38fIwFmpVZVaQvCNlJUgFga5vn639BiW4YZ/FnVDkPD3UJ0jAkZWy8bVQJO119O2OYeo5sNMXaCnZmYEnSxJr8QPzi8PtOzOjw/DDlmbzjNeorYqrI0/zX7j2xQGdlM81sHiQgg/w9iK7+w/sRjNutxtDlDmFJjVSwJCugG+98c3vjyPpsUWnYNHp06Aaugd/bt9dzg/o7MsTCO9Mh0kKaBsc7ce+2+HL7skjJSsUIrSdr5I29uNudsRozBHRgotolJYvKQG8vbf8A8tcnb3wVGTTJrpSfVoFi+NVnsTf1JwouSpJSAqRwam1tvRoAkDtdVv8AN4Qghm+8HyPLZGbRsQQeavs3b8zfbAS3pAed5PuTosgTUulhR07UQPz298Xp9lq5nLztms5KIV2jeGSyo2FEVsw7Yovw+WjAfMyGRLBRVU0bs8d+D9cW74C60/S83q0qdSUymP07qfV39vyxZ1muneldP8oqgXzFoKVLM6lRuPphxkkeMM9hirkFVcUa5r32GA/DWaXO5CGRSwDoDqJvSa4/K8bdYKSJC6ykWzBEU16geCP3+cdbQblM60mXtwwZGGkFCnP0/vhxM2wkiKA0GBr+Y7WPc4imQnkk6wcpnIyGIV60hbN8/Sq2N4kDZiGJEDUbZowgPJvi/wB8ZBryyltKquh79ZJJJB2sdzWPMxl/vEgKqA2jQW4B/L9cYmYLxojL69PLUpC/H+cDp1DLxrRZdSmyitZA34H0o/ngB5OmnUFkosqgEg8fr+RxXX2xeDYPFPhDMf8Ah0ObyeqeL1aeB2Pzx+2LRkVZss/rLBP5q53/ALXgNUXMxSpqVom2rttsbwHzlz/S/uE8kLI0a+kuP9p5DL24/Q4cendGz3lSZnp6tIV9RdaYAN3I/mU1vV1i2PtI8DL07rGfhhjCwK5eKEmlCluOL+a7Yga9Tbwq8UcM+Zy8cUoaPyyKRwOKB9IruNjdGjjGYsNfgrN5jpvXGh8kQMzi4lcD1A3Xzs3B5xeTuzxEKwQN+HcW25A1AfQ7fOKUl8RL1zr+W6h5UUuYYmOaaJNBJruBuecXdkctMVhaRFtls+jSHNfN1x+5wiCcvJoUrmECvVaAwJH1Pthxgk1OdJCkkMAOawOuXeyyxXRGyjYj5re/8YVh/wDDuC40nSavcgkDsP0ofOOkSnHKzmLMnzWC0dwq/hAH54eMsQ0dqVjP4KCgsTd77fH74alhWaSNhpRWARiCaHP+OMFxJLGsYUnQKsknfub+nPvjpOMHiJSVHlii6koNqJA4J+p4wTJlF1j8IdaJ221EHcV9ePjCWTy/kpsSxtlojbtRA+t7DBCaiQfNjRPwjQR6ib7c1zt8HFGqrMAAsuXZQNjp5GMwUmUhZFLRoxIBJ8yrxmAikkiSB28vejbb6qr274AkmTyg7EuItKt/to7bcUMbO6qHK+qydTqb2J49jscJSFPSN5bGlifgn59q+uM2+AV0IZ3YqoR7W7oD4r64ER2DNqQaZGokja+Rfau9/GCg8bozNq0kEsqSbsooEGxvx7Yb1V0EbRx+c2pvXyTd70O23xjmCMw9soO7INAOxO+42+owg0oXUJfKb1bME1bV7cA2eePzxv6o5DIbDMAdQU7EjkDf2rAoy66GVCoEZsMxPuCdvp2wbKnMK+zMTf4AReo9tu34hgBkaOEMyLGifjDEgA1+2PQ0oEgLI6aCdaE/7aojnivpWEi5DvSOCVASmtVU12+eaxm8VV/2u9VaNctlYtIJj8xa/EtMLavkEduMUtmVdkRwWpz6XLA+/Y8cUPjFufaqU/1TLU7sDG4LkC7LDVZ+i1iqJmUmKLVIQSzazRG5vsRR34H1xlYJ6TNrIIeRVfZRqqq7mt+MOkk5hiLSMpq2puTttfb/ABgHp4jGSklAZwCWVGXbcEADer+ffAryv6V1NujEAr+OtzY7c8/GCnPNZwwMj6QkYJViBTMQL37VgTLdS8uVpJEGkWqKo1gH07H9h7jAUoQtJ5i03pLAitiRfGxG+/540yvT8zNJoYuX3JVCPS/Ar88BP+ieKMtmJVSbKwrGxUajJuRe1EDa6A78998Xb4a614fGQZ81mhLOrra6gAoFEqaHIIa/b3OKA6b4E6s0DT5WF0jb0kO+liaFqFHYUOBx8YWmyPU+kOzMpAZhXq3vvz+lcVgy7I6V4vyeRyeW/wBLcaM07SBmo0RWla7A2T/jEkfxCsvVRk545PukIk8xlBYrqKkXXCkE17UMcSZHxnmYcoFzEjoselJFIAHlgjTzxuBtvizfsj8Xed4jiGbGZlEsbK/3aMuzgjll7A8XVb++NS6L78S+Ist0nMZDMio9YKLmUkC+sfhBH5EA8HjY1iI9V+0bNMHlhkOWXN+tY1Qs7OKB0DvdE3wO+JN468MydW6KzdOymZgRyGkRoTGpFcr7E/T32xQniATeHMwwzuaWZw1KISS7agKRwtneiAK9VbDFvges79r+fyuZzL5HP5mSSVjEkBqVQxNWKouANzRCg+/GHPw1448Q594x/p+b6nMGOrMROYzGt3upNE0eBsNt8VZlc95eeWLNxGCd5ljEUeZ0yCy3oI30dvSwXt9MX99l/TgkKzZDp2ZAKB2fSzsNVXe5JI7VVcYzOixOkdUzsaRR5nTCzrZWVlZCfqOPmhiSdPJkRgyKsrAAgnvzf64Dn6fAsZ3KOK302bA7Dm9vnnCeWnfz0lLtKI2ayz6SKrZsdclFcfbr0eaLpq9UyrhdOlWuxoYEUb5I7EHbfHJXWlebMZpZHkEiXqJGtie4JO1E9x7b4748ddNj6/4W6rkpKkEsBOl+52K1/n3xwT1RGbNSiSVkKWhYn+Zb4G1HY2O4xz+uhw8A9GWfr2VeZxCXdpImr/qAUdP/AG+mOhsnEImmVhTJ6QCtnnkH2/ycc+/Z35z+IMs8CmlbzJEAGx4Y1/7j78Y6CgGmNWO8gYqSD27Vt/8AGE4C9ShtLq3qBsEUAR35+f64UKEyR0qkl9/TVA49IXVHai1YpZPJH155wRlICCwX1xlgQAN1H/PbHSM2FY2WLVohag9GT/YLIrtd/PxhxjeKRQFse4Ow9+ORyMBrD6mLcMrH+GnYUd7PxhaJ1ZW89m0KVJYjc3wB78fONz/GTqcwsZA0EBTZ0gg1uBv9e+FJcyNKiW4mVRpKjkgbf13OAPMqQEBaLHStijyTsMeyEiALEI9r06m7/wDO22KCxnnb1eaN9+P+2MwMudZVC+WjUKs6t/3xmAjckaJqcJrpSQqvp2vbna7/AMYHeUlHIGoD1HVW9AC9+N/74NzAHklNBHqsKFDUb5v2o8DA4UCtQWt/4roAQB2+hvHP6AbPpnAV4y+oBX3Iqyb+BvgOV45JGRfM8tGI1aRbgc/v2wWZI4sw2iNC8jd+B2v4OBnIuTybIq42CjajXf8Ar84y3IQMqxEjL/w0aydwTffYbnCMkpZ9IdC+kG2WjpHO2/x274yR/UXdVJjbU583az89tjhAyJq0hhe1MLAqvnjfvjNqiBOBDI5L0bZlVa2v9ucIZmbT5a3IBYDODpvba/c78dqx6ucZImUXpBrmyp7EHuD7DADTIpkjnRnYj+HpP/T4BoXzvwMZFV/akm2Wz0TrY1qWP0v8qN/XFSBZV9hAWX06qB7778gd/wAsdGeMOip1Lo2cpHRwpZDpC1pFkjv37/THPuYTT5hUMSultDA2NrJ/YYKdenRCbp41mN1DatQTSARvyd/jvxgLM+UQylh6lFNYGkckj8jXyMOmVhE+QdEJDOpJBHA3JW+a7+45wA8XkzPJIAHBBVSnpFi+N7Gx2GClsn0uPNTnWqxR0HcsDqri/gnttvg1c1F0x2Us4ZDWlJDR23DHYsPpwa4wZkcuZPBXU8zAzrNB1XJQyyVpqGSCYKfcfxAwv3A+MBZKKOKTT1pTm8q40AiUAxLe+2wPeh8YCd+EvtSyXTG+7ZrpmShjZfU8sU81mjuxT1bGtwu36Ybuq+PP9XzWazWaymTlQGnkyLyPE5A3GhwCBdEWoO9Yh3UZ4em9S6rF0eeeHpuYiOWzAWYPqy7Mj6Rq3BJRSN9qIusC9R6jlMxLHLGM3BmChWZJGjOqiAm6Abgck37YIlfiTwuY8lB1fIZ3pub6VJBB98TKZ8yjJ5h47EB1AMSwGoVYWjZBxMvsT6mMh1jMJHm5gQoUPl3VCDqpqLdthtwQcVjn+tZaTwx0HK5OmzWW++PmzpolnzLmMXwfRY241fod4Iz0uX63kZUbUEkDAEA7899geefnAd45zxT/AKdk8gWimzGVzcE6xZosGrMIhfyGqt2QOVPcoR7XyH4n67lTkOqdbbMy5Dr3VdOby6yZZ4nXJtMY/Ly8lH+I2lnZwaCAqCCTjqnoWSXxD4MzXSp5EDNRhc0wgzCsGRlobhX0mxyLGOc/tY8OOnTeh514ocs+SgbonVUjNfd8xBI7xgHTQR45TR2B0FTvWN1FNZbKTCWJAioszrUcYA06idrU3Zs3RxaH2cLmesdSnj6XlfC82djKLAnUl8mSVidxHIjqy0PUSTyKG5xEOj5GPK9ViYRzF42WRTks+IpI35G5DAb2a+MXx4B6Rl831CPrgy0mazIHmxT5mKKREYgVKiCIBn3FNTVdjGJ6qxvAPibO5rN9U6T1uHqOT6jkBC0nT8/IM1HFrJVZIcz/ANRomrhyxFbNiarmFM0qxo+XmZdrVSdP/wAjG/Sly3ToZJozJLM6qZ5ZqLMVGxPYULAGwAGPcrlEWV2B9Ur6jTGlFkg//HOOvEPUUhMHqGlQKLkdztx9ccN/an4bbo3jXqkFRmJ5DJG4BAIftuAL3O+O4TEpiWUIKBDvp4IPOx745S/+oPpiQeLUzWXaRo58sKIulIBsDttzW2MfWgX7MPCIy2V/1xzCzz2iKBXl3+JQCNxa/wCMWGsPpPksxLJf4tgOb34GAvBOSGQ8MdNhmUofu+srf4r9z77nbth+9RVTQHmGqUWAa9sWcHsHpGi3R2th6tQ47H2o4cINDAALvWpjXJHP9sDIhCqAC9gBxVaffbuPkYIydny0jelU3pu6P51jpOJR0IV5rX06SGHIDdqJPcfP64yUurxu49J2b0g6fm8exqzyWqsGUsvpYHk2T9LOCZlco6mhExKhLsVxY+QDyMbYIFVeiL0xkhRV2eN/y4wPJCQ8nnKQQTpr017kcV+/GC286bNbE+pbWqoEmj9PyvG0uWGhk8wWxOwJq77HvgGtoW1GpyBfG5/fGYc2zeXBIdoCwO+3f9MZgIpIVWIOAfLU2AG2G+39MIKQ2oGPTQ/Fa7En2/5eCHZ3jZZr1qTslHUexFH298NzodTCUAWy0ASRQ2F45BHMyr5wKv5ZQljXJA3BvttgR0l8yMppdTsfUW9Pvt/zbC7xMxISMnTRUE9ruvzwlmPNEYEPq0AFVO9dyL3vv+mI6B8wFh3DKokdiY2ADE+xr8v1wGUAkiCSWndeN+3PB2wRmRK7BImDPd0osk3fxXH6YBzbNImhYSoLEDQ++5obdxeMUZm2kKD16GX1a9Yp+dtz8nAZJhX0EageAbA1bXd37fphWQDy2IOslewtSNQvttzQGETlgSKFggL6Xv8APf8AI/liAvNCEZI5ehmI9xErNqoUdiN9VH++Od+v5F+j9WmgX+Gy7qQKJBOxr27Yv/NSFA5FlCtMpXQSRxvxuf64pLxuPv2eEscYWSC4yCbBYGw1VtW4/IYBtyE5kyYZSW1Euo01udiCefz+cA5mgZI01qSx1jzDe/NexwT0Wcvl0T1HSdB8yyGPb1fl/jCc0hlWWlER9XH4QTd7/G2+DQ7oXWl6UuaWeFczkM/lTls5lGdgs8OoOpVheh0kCujb0w3BBIwWHyrL/CLPIrAqkhUA0aaxv6qNkjbDBPHp1IlgkgOpar2va/y2xrHmKBAVfwl1Dev5/v8AtgHvq6Rss8eVhUyM9CTSQOP93B2H+MQ7OZf1GOB0XYBgGoqe9/N9sOmbm1oVdXAGwJoAWTuON7wG0nAR4go9Iccnfg/G+ARRXMcIloEnYlgTZNgc0O+Hrw5I0Gey7xR+oN2awAP/AJw3QxiOO0JFvwEG3wP3w4dEPkZlJVjjLCb32HOA7y+zrPxZfw7AEjjZdK2EGnVsLO18nDz4x6Xk+r9CnzmYy0eb0I0WZhdbWWEj1q45IFhvcVYxCfsn6gs+VgEjNKHijVUqydu/t34xbMc/3aKRvLkpn1Vpvkdvrjp+MuRvFP2enoGdgzOQlOb6Q5AikYGUR3XpMiESLY4JGLB8AZD7l05pcrnMzwv8MaZEH+2iVV14AokjFwQeGunRZyaeBY2y07FpMsoDRmxuCpsVdUPg4h3XPDOW6bKGysEcMC6XUA2hIJBAUg+sc2DwNsTBJ4fvU0ZTMHV/03ZlOoNvVNdEDe9sPmXdtQKxuqBirCRaYbHYc323vEa6NHC+lJCIyivSK5ZQp2BB2JU++5xKI0jijdNMaBDSUbVdgNu5v35x08gWndolbUpSG6ZgeCB+97Yqfx94THjbq3TVkaWOUTarWqdRQIvce/64szOs6Q0paTQ6jUp3BHc/Fd8MfTss+e6+zpMIZI8o9q62av06fY884xRFus9Iy3h8QwZUt5Rj00z7g37+/wDTDY0SkNosqwItDsDsd/3/AHw6dQgzGVynTour+bLnoY3D65KJJah/bDaXVUYxgStvywOoVuv13wC6M7HQlOQNGsCtwP8AnxhwgVo7IJIsUNO5/PDTFOWepBqC6imkEGq7fpg7KStKUCxyEElUJIArtQ7H4xqdZtOccxSbSxA8yvUTVHfkj5wfIKjQaa9Isdib7nse2GuP+Htr9f8APa2SOKOHOIIFbWTHo9Naju3vv846MiMtAmqR4wrsDq18kU3GFG1ebGCpaOxqBAAB37iv+HGusLHL6E1OwLkb0dx+n0wvPuAyRkvHwFH4xttWAFGQZgG+7877sRjMFq0SgBswdQFHfvjMBXuYOhiFZ5Ah30rXP9yMASECQp5TliAVI427mt9t8FZjNlppUIJCteoUd9qN1v3w36G1RsyvG17nvR5O3z/THEJ5qz/1Gcte+m9wDQ29vpxgeVacLKFXSvGojfv237e2F5g8SyNG/lEqACQNIYWNxz8+2BMwJkOuIyklhZD0F2Nke11z/nDnrUDZ6UtEQkjuzHRYPve3F8/ngRnJVXUNIxQoYywat6F/oB+d43zEziRTEU0M9gn0lj3r8tsBzFtaRKAqlAVXj1V/X/tjF9rRN5JEJQFQ4LGTQSAtkUNPttQr++PBOMvHUT6ZTqB0/wApUECwDxthWbLD+GED+WyhShcck0DZN381jySLWfJmk166KgPXp7kbc/1xAHLOjZfy5LIJIIXe12/Tnv2xT/iDp7ZbxXPE/wCAm0pWNgqe3vv9MW6HSV9MzvHGg06XbURyDx77YhvjLLRq8OatUlKmL0gg6a2APY/ngK7y+XdMxmY4CoVW1MSwG3Gw/Y4HMRjEoKm9C6o1JA5qwf7d98O2TgjRHsbOHUqaNMNya/IGsDPCJMwyux9/+nR9j+ff88GgMkjWwYqtFQDfpb/J+vtjIwNBsa1Ow3pu/f23xvNCQpCqYqUggVexFGvbCiZcRkJIfTQo8q2/+cAFIW9TqTq0kLRv5of5wGInCm9ShGFmqJNdxfI5weoGqPW7KS5UqNgL2/tWA5USKTS/pJoNbWbuwPcDnAewyDSo9SFSaogb889v++HHLNl9MpUPrRzwQVN2d7+L4w0AiFwvlKQorSRq3rudtv68YdehdNnz+fjgyAYyytUKgbMx4232rfAdT/YX4jE8ZgWQRyJGp8vTp071+LgDFm9J+1vwz1jrx6DkMxJnMzrIE6rUEjCgyxufxAXzVGtjij/scyuQyvWZsl1HL6uoRq8cokZnidQdLKIzQANHejfxi0Oh/ZL0Hw74j/1bpIzCQhbhyWoPFBqO2gnehuAp499hjc4yfcn4rk8O9amyWddJMvMaysxIt1J/D9Qe24xN8xEueg8vzFOxCpHQI78/83xEvFXhj/U+mF8grjPZZjLAQgrY77d9XH54J8K9UmzWSUzBzMm4QjS4XYA2fbcflih/yvTYoy1UAr8OlkGhX027DCReRr8wEeWxBEdgXwLsYc3dQCoZtTKCLQnbmz3wiY7Bd2AA/Cqt8b88YuhpmnKzwJG0bIzkurA/h9iau/j3HzhvXqB6B1abrGYYDpudZYLfYuAKFfSv3wrn5G+9s0WXZ006V23Yf4G+Gfxb0DOeMcj0XpvT0C5TLZpZ52J9QAFAUO3fGrwJ+MR946qGjYBGgUrexPJBv6jEe1M0TKqR6RyFB9h2/LD34qjjHWpYIyreRCsYZRQNWSPpZr8sR7MudQ81UUIbNHVufgc++MBdkJmpBurkjRYINVvhyy8GjeNtRL6d9rHFj4vDdGzxlTobaiNJo9uD874eY3VBG7EyBdidq5H9zizqVvkyJJWebUgZSwUitFe4/TDnlEVSvkqqSOdRGjtXB+e/5nDfHC0axsWQmMkst9u5quBjZXVVA1RVqtmFhb/2/XbHRg45maMv5iqDEzamMfb6DsL339sDSZnRN+Il5W1HUKJH0v8A5eBpc46i4yAoaiRyBW1EYF88meUTizTSKoFFb3II3xQ9/fMn3UX/AOsYzDCzUzUzqL40g1jMBHnWSIuyysATQ24Yf0v5/LCcayiQs0MagFqY7965788bYIkjZjLa+oE+ldi1javnCYYTCQBFkJolQQGHz+5xxAeZYqJQVQxMCTsGr5of3GBnLRtFF63Ug6mJ0ggc/F96wcyRM/CsCKIuyL7ftgGZYBo8xSBqsqaAJN70RxsMGoa5nA1LNGUvfWIwCAdvf2/XA3mgmGQ/wmvV6VIJ3uxv8fTDtMIpCwKkA7aWPt22J/X8sN0wSZCo1rpb+G55Wq5PzVY5tBHcywo8aFlF+lQdwdyL72cCZjNiJpQ0RJWwv/7b2Pj27YdDlVy8RlIXy0jLOANIbaxQvn9gN8NrxB/JICzsaUBHFnvv7ngfpgBY5FcsVQsTqptJC8WO+53xHvFuRbqXTJjlwGlRjIHU6vSLu/yO2JEsXltLeobCyWpNyB+fxhRsvGjaGSyQAV8y9fa9+3P6YCmchFNlJGR4yFYB1sgkiqs73xhJ4yCRqtRZSj7/AF+uJf1rpsmQZ8rmNRePc2tXfH7be2IhnJFZ/VJuiVV3qHzfJG2DTR5W8wlYwUYEkj0gf9vyxq0ZniFqXFV6SaB9sIytHasRchIH4juKHPzhWNiQFqRm2233P/N/isAguSeNgURiNRKgmvTXf4wDnEKl2RFW7ZlXctuaH7D9cPsxiRFjDauVCtvzx9Pb9cNWalC6a0yMTsV5a9+Rwe35YAJELtKUXVoYk+1d9u44/MbYsz7H/uy+MumnMJZLWCxJKkqVUX+Z2/LFcCVYgfvEep9JJQCyTxgzpnUp+n5iLMZXMSZeeM60kibcGw230IuuN8Cr169l854f+1MZ3psQaLPSK4dXNWSA4DVsdiePgY6T6bIWijSSolW6BckuD/8A8ixffHLXhvx4fE8k3UPETZWPqeViEcTJEx1gG9ejVpDb0NqJqt8XZ0rxpNk4IS+eXqsGrQ8GYYRSkjnTIQLOmjR9jvjXzc6ysvLs6XIsYjOobnfV2Fn9Qfy9sDQ5GOPNtJlpnhMhJKbCgOd9wRYu8MT+JMhL0w5rpecjzEKv5chV9LQb7ggdx3PGC+ldYjz2WgRZg0VAkllO5vYG+Nhv33xrRKIXMshIQiYKLCSd+Kr6d8eZmYJG3rVCxIJeqFDjfc4F+96ss7SHS6MR6mG4BokEj/4+cCZ6eVYgVMbs4DlyAbFih9NyL+cAPmQytcZUIgsvQGw4J+vGJh0wnK9Ot7GpdSslbCr3rgfPIxBpHkeTMOVJkfVGiAA3e+5/YYEm8W5vNdETKiBstmDH5cpYbgA8Cu/zi2iJdQz0M2dzlOyhpHawON+xHx7e+2E1dU0hAbJugNwOx/TC00GqbVMxdNhrWjR98JJDTxioggBYqBvdkgfTfEBENo2qMtQNANsNtgBzZsnD7HHHEIlWEzJW0d1qO2/61eG7KxRgxuooj8Q0iz7Uf74d8gAgpySCSAKoAVzz7j9cak/RuQHEvoD+hitEKWJN381++AmMEayCQrabNqALLXz+fP5YWkthH5g9QUXb3pO59R427X74QksMGlVWdbtaAv8Az/3xtmxoZXWJ3bTqcqrbU3xvZr/nthBpywQxjTerWzNfPx3vb9cZNw1NoKruFa99+b5wCcxMqmNlLFfSq6QN6q7/ACoYrIsOyALoqtq0D/GMwAudYKoaYoQN1LtY+MZguNZFmjDDXdEmmG5HB2HBwCdCNRXQhbUNLcHbav8An6Y2lndVkcFQrEXZoD3J5wgZSuljbHalC0Bd1YPxYxxR5JO6ShgQE1cKpLG+TfFXhDMZzQfLnDEBrD1VDtX0Jx7I73rsbgbK2/J3qsY/lu4lmhcUoogXyCb+Nv64OhslZIWRwp2B06TYO17D9ThNC0WYYv8AxtSgsE9I9735PH6YzMzCMsyBY1YBgrGxseOPYn8sNTy6XLsxBsiNC4tT7k++1YxQeMwdbxu+v0KSrpZ7mwPngi+MCMhaO1kSNdZOlkFd8YyiOvOjZ5N1NH1G6JPGxF1thGUm39ZLGmJRDbbVX0537XiAVWUSGONmpECn1ab4s796HGNtChyDLSKFoajek9v1B3+MbSQKraPUCdI10Cd7rfn9cKZbLiKNAUH4iRqBZRR33/8AjABdX6TD1vKiKeR4JVh0CUjUEHG/5cf1xWPXOlSdJ6vnMpLIXfL+kPoKhxQK7X84vDL5VG1tIC0aE0aYtWm6r2r67Yrz7UOliCfJZuNFjaeMxt/E/Fpsk38A1WArCWILoXy1LIQG31fmRzx/bC2VJr1DZhdi6I4P/fCWZRS6iJDHsKs8Hv8ASsJ5aeRD6iFjs0TsT8mv6YNN83I1MJPwmlJbgUCOeK7YAnkfVIdJU8UWGx2F/H9sE5qZPKkJ0xuhsU25FXv7/wDesMk7612UByAT3sfJwCjysFKsSL7k7k//ACMHdCyUvV87l8tliqNK1Esx0KtWSQu5+ALOGhvMElBRLtQu9996OCul5mXKZiGTL1rQEoVXih2A/p9cBa/Q/BecgyWcabrCxlstG0mViXSMyHTUVDMSFYKGF1d174vKL7I/DnUVXMt1PqPVdZDao84S83po8bGqBBAFWRRGOcfD3ivquYljcaWkhVEilEYJ5GkHfkdu42GOgvAnjLqbZN4tCQzh3Q6hpVl5VgasE8Ee522xZNZHdS+w5MwXfoPWeq9PQpV51klLiydwArcg98BeC+m9Z8I5vN5Dqs0ObhkZFglhJ8sj3AO4+VvbFmZfP649bSRoA2qi4AN8qTVg38YF6g6zohOl2MYWqplN0Tvt2P5741gfOnZ6kMeyobOpgTpJG+3H9ucatmGlmDPu4clkUAi6Flew+ecM3TPNhhU62XSbcg7Fd61C/wBffB7ZtoXZmKIqRNYD221WfY774oHz+Ygi89ISWL/iUten39j+n9sNYlkV23lcEHTtd/4GNZs8cxmpnRSigCgW/CNu9d/fAs2dVRpCqZWAtqPe8AqysSkhBUktr9WmgO35+9Y8MRIahTxCwCK78XjxW1FWcKrqQBbVsRZHz+WF8vLbBy2rXfI3+P0OALySyPIrSAUp5q6oWdid9txgxI1UalZmUr6FQCmFGr3/AKYTy8QmiADaSLZ9+D72f6DBUDSBCqkmn34sdrA7Y3OAaQNIp0hXi0GixoBiLwH5rldElqFGklm4NA1gqSRV9B0q8lba7sCth7X8+5w2vJsQFJINlTtR9sN9xL6TYMJC8itsCFOwJ9ibO1bfthANqb1LSlSTvannn53vCpK7lkVAuqwdyTe+EPW2+XZ1DEqg9j7n3xdxLwO8MRdibJvnXz+2Mw4rOiKFbMNqAo24xmH9VNM2dyzv6yaRntXI3AJ7jg4QCPoUqzBrOtg2x7bE/XC+YmVFkptrO1cH23/5vgMzA0CyREilo7n6Nd9/12xzMrfKeoKEJRGcj0CmrbY/pjWYrvIQxK6vxVYN1YPx/fG0U5llZY1ZGNFdSmmI+PjCeYnaAoqio1K+YGskb8jn3wawzTRvXkalXSVUl3JFC+P6nAmYBjlEcCa9CqyWBR/3HVzvW/fD3mwpCLOzN5bHyyuwLHvxziPTsJJyszlZ2cOSdgfigeOCPe8YvVL+a5ysTvI2smzGpIK3dn+mAXcWmiUSSmrZRtdXRv6HCsmox62kpm1aiRuNr3/Lv741I0OlBWVSQiixQAHNbk974xBpGyxyHeUCi9qLDHtv2B/bDlbLMpdKGlSdRNkfUbHf3wE8MTMwRzJKSVDMe5Puf6/OCcqZRSqCVayoK1t8Wb3r45wDvlvXEGJ8lm1M4s3VbGq2FX84rv7V8wsWd6XvaASlQ31F17jtiwsvNEzG30pqULJrpfg+/auMRzx54bPXOkqcpGg6jDqkiiJsyCvWB34wFC9RKqziykhKjTqBC9yD7Dfn/GBGNxN5BVZGN8gEEUKNCr3/AHw5T5RoEUkkPqNF03G9bjtvgJCFkAlaQkDTt6iaF0DXx/XBoFmozHCrSEh9bPtXF0b/AFPGBY1VmCkk0qlSoo8j+mHx4hJIyvK9FdFgaQF3GxP0GGyaArIRf8SmD0d1vgtQ247YBrJJDsWqRr/m2+b9uLwZlCvmR+YWAW9YQ9rND98aHLebISxIGnUCFI2AG9e/a8GZShPFX8MuAG1ACiQf1HH6nASzw1kJw0cilWZfWXRixBseravcfmedsX74Iy2oKGXzbLAWCzoVNBSew2JH6b1itPBsWWnyy+ZIto9BEamDihwdimm9qG5sEcYt/wANTwx56AaYwUUapgdTG9wfgf3+cEqYRxSJs0mwYFADpJ2vj642IkmUxMgaS1AY72R3N8b4WfMeZI7ssok0lTrpbHci9uaP5nAYkC5qFyNpCQAE0ke315rHRDzlMmqHUoJnRCJAGNEjcULs7k7nDf1KSGLLsYldyp1KdVm/9p/xjXM50xQq6qdB4WrNXsf6/XAnUjO0JJrQxurqgPbANQUDVIXIc3sG2I72P84VISBbQDzdG5K3se9YTjBWN4wojJNghqv/AOf398FgK6eh9OsEWBXb/GA2CCSRWKlULBR7/QfX5wuaFvooLZJJFhhttvxvjaFVRlVrIBA1Ka7D3Jx6zqdRI2b+JpIDHvt29sAtHmidOs3Gu/4Nio/oecFPK0ZjZC1IqjSFBsXtXzXzhsEgBbQF8w8myNvkf82xqGPl1AAKXgbX+mLo2mzVyOp9he4ZiDtX12/LAqSKVFubDU3r3vGNL62aO9aHUVYA7Ai/z34+uAARLFNSsjBmBK7+q/1/X2wocncsKRNLNWok7j6jCTux1XZZVCqCTQYjn9+/PGAxLJGykwhIpCxLM1auaPx9MIZieZAHbcggLoPHBux78/lhochn5CBoRitbb9v1xmG9J5tC2N6H8pP74zDQNmJNMep2lc+q9t1+SP8AnvhBpajKjeVR6S60LrkH2/8AnthbMCIpJRk9L67WiLs7fO2BdRimDSLUZO1rtRUbAX/8YgViIlY2wXXWwFEn5PIwmsjPG1BgVaipOsbWDsf0xqsipEViVDxpd2IJPvft84EeUu0jByhVLCg+n5J3rsN9sS3E9I5qV40GlGLqQVqyDHdih/z+2BWGXZ5NRiYmPTbk6l7kFd+COMbzSB5CzSP5QbT6OSKoH5G/5c4HmGqdmtDp/CVHOwqwdh/c1jCsMoMRJsitL6RZArZRt7jGolJDMwJQvZUELt9Lvn8seIy06pqoEAgnltuAPocKRyxOapQGJ/AtnTxe+9/HGA2hmc6XjUn1EuSBzfv7E74VyWZEWl2O5YbNen4IHv8A5wmupljEiqAFpXYE2AdvisbxyMqI8RFMQpBIo81sONzx+mAPii0xSCMEqWuWQiifmv13+mIf4L6t/r/2iJmJTcWWilSED0gDg9rsVg7xd12HpnSBk1DefmB5RAJDKoq23+pA2OK66B19fDvX8jnFoiM1OtWoRv7jY4C2vGv2WweIdee6K2XyXUmcExsbiloEm63DXfqrvijut9Cz3Qc0Mv1jKzdPkYkqsgrzPo3DD6HjfHWGVmy86rJFHGY5W1oVN6hQJojjjbG8/Rst1OI5fq2Vh6hlCNLRzIGUjmwPffkG8aw31xxJldLlGryyCoKpRA2ND34whJlzISEUspskKRuTYNn6bjbHRvXvsQ6PmlMvh3OS9Je78qRvOhBvbZvUtbbA4qbxV4E6n4XkL51MvPDI4jSaByqht/xIdxq7Hj88ZXUAXJ5lCajZJUQl7A3FV/U/THkeXmVVYkkaxs4sXvz9cTDL5RZkAzKR2rEW9spP1BsEYdofDcE4JiywmS7CJmSlb2bBFD63gpn6T1F4ANZADAIANrs2fVsTx70NsWn4P65I8/lxyVJICCCV06S97MR2AvnvzeIlLklfR53SZDY0hhmVbVxW9C7Irth/6ZlcyqlcnBHlw9awDr2vcn8x298E1bCdVjmQF3PmOQVIk0s4s8E2NrHtg/Klc24SON5Aw3DvqIbuN+/xiH9DyEomXVNI0d15aj0AcrzuQfz3GJ70dBlyAHIBGkAixde/5Y1EOeS6YxEJaKzQbQ5JFHkgf0HbC3UekLmYFyssrLJMxEVJuHAFcdiBh+6VlXJav9pO+1ck7djhLOZBOr+MMjlFRvu2Ri+9zEA0CT6L7cknGhWEIlhmaOaJpGJIYsgGkA8fTfB4WkHlD16bs2o038e2JR456EvTesPPCjCLOLrVb2Rv5gPrscR5YGUG0ZSpGkli3tgFTCW1KSHB9TbaTjQI42RVbsu+1E7j6j3wQp1lQ6hv5mttz87b3hKVU00UrSpJJ4q9qwAm8wVANi22+x+n/esY6OhbVHbJsTpK7f8AKwslLMVIJIrWQu9bVvjyQN5hVbZbIsGwx9vfANEs7mVf4etPUCIm2u6+p+v1xqcwZLdlCAG9uSfYdhhfMrofWU2A0bL72bq67YbzEfuyJoI9NGiBx7/rgMklPmHUCjBzVJe1UTv/AF7YJhZJ0RTHrKglbP4RfN98IgTRpLr/AAWQKscncf0xsFE2oPGlAUVva/j8sB4RNZ0FivbTJtXxjMefem7Sso9tHH74zAN8mZKJJ5kmoam5AB3N2bG37+3zhCPNgkhCzopqI6QC5JuqJ+o/zgmRCWdiBGpNEVWqwOP+VgGmCFFiDGRVUWQ9jVXpHANb4AmGcSqBKjnsaIHI31UP3w2Zo+a0Y5oFdYOrvQN7c389sOsMbQRk9lUFSwrUaqj33v8AbAeZzEMrLTKoIB/CV1bd/wBB+mM2Bppw8kas0flmwauzpF/pX743SMrKB5kRaiFVbGw7b7Xuu/xhaZ1ikZg9FmBLuNyOL+AAN698IeaF1yxBNSsAARQNbUQeBvsfzxkJ6kYuMwKeiA212DQ45N4Wgj0Kf4LMl0gCgGzXF8DfCMcoKlSighTWld6O+2/vglY6R1oOlckCyOa+v9KwG4RzrVW0syUWbir7V7m8e+bHkYpMzmMx5EEILyEGwLN0BXxhfJrIZjGpZiy+lFa2Jv277jFd+PfEMc2ZmyGUzglysDkyNGaVmB3Ckf7Sfn9sBGPEHXH6t1OXMMzU/ojXWajSx+IC/k/XDBLmfMkZboA2QV2rfg9/kj4whJI2anYIx12F9Ld7I2P0G/1wkzmKTyhJrUqpbnf2PtvguLw+yTxqZ4Y+j56QAXqy7H2JPpv47Yu/Lkfd/VvR2vYA3/bHFnSM192zCLFMbA16y27G6Avitttu+OhvAf2gp1KMZLPFhm0FG/SW+RvuNu30xqVFi5xlRCwIkLNZo3sNu21b4iX+mp1vqf3DqcUc+WzXokRltWBsge/P0xJ811GOLLhIpCzBTpCgUAfcdsN/hvMCfxL08MylmnFWaFV3rvfbCirPGH2UdQ8KLJ1DpomzvSIwNej/AK2WXffb8agdxvtviL9OzbxGOUsJl0qwYEDUK52G4747OmyCGQto9S7kqLrmwMUb9ov2TP0dcx1rwzA7dPBaXPZKPiIkf9WIf7eSyduR3xLKIEuZTyGZWfb8buaKn43/AGGHjw7KmZz482NuBZBrYixZHP5XxiNqVoMrv/EUMHRRTDtXb35w5dHeTLZ6IodLI3I20j4HH9/bGf0XR03puuEaKYIFKu53rTzf1N98SLJZd8zJNDKPJUyBQxFg7bj5wy+E+pJPDGJY2GtQCdBBJ9j33HfE3y8KSsJYowgX0cfiN8n8sdJA4RBMjFNOzWqprkUkfhrfb3w8+G+nSQ5T75nVX751BvMmIBteypvvQH74D+5P1POLkyjNAlS5mtthsq187/piVQRqqMNghuwCdh7YojH2gdMGY6IMzoXVlZAxLD8KnY/1xVyOHBZ1tVBoDsaxeHWcoM90vOZagFkjdCCDXBrb64otNZQNMTspBs6a+K/PAExxm1jsCiCFqydv++EsyrGWgfL7AKar/wBWPRsVKW2n08X/AM+uEWlEkjBw+rVuNNBU9v3O2AwFfMWk8uRuduPqPfY4Gln8/wAtD6NiNN1Q4u+2FKMmuoyWJG3IHt84SmVUkYs2oFq09hx+dUMADm3kZQoVTsCTta/N3hIRmYqhICfzILXfe6+Nhhec24OkxFl20AA3fJHyKxmoIiKV0t/tAF2N6B+awAzxbBCxDM25B0ggE3/XnCbw+TCBZKKG9Rutq5796+owXDCvMitRoEXfqHA2+O3xjWSVJIHGkawfwn/P/OMAI0wDEUvPcYzCmiE7h0IP/mP+MZgGhZXlmkRVZTuynXYU9qscb/XCUpjEHqRjESDUa9r3FD9K+uC/IAErmIuFFqr3d0fn55Ht8YBmQys0ThrUt5fpoLf/AHoXgNoZz5oYtoRSFqwLPx+vffHmZgWWRSxVlAGttQsAWRSgbjbAysUMQ0GVha2BseL/AL74TBLBVZFNkmvLKmjsF+tD6457QhmCgmKo+kqbCt+E3vufe7/XA2ZKP5sEZJUyG6ai4sc/4wpmq85CC3qpnjP58/Ir6YHSSy+n0q+6LpIs73xzd4DbLErGXZ1O34eXDV7DjBasgULJvEFJBZgNPdiT9Nj8DDRmep5fJ5ZpeoZlY4VceYSpLHn8Nd8Vz4h8WZjqs3oAgypJ0xgFQTsPVXJ/YYCY+J/G7ZbLNk+h5ltTE+dMBXpr8KHmjuSfyxU83UGnk1HUsSm1VapSBzXc3jSWVixksNTU4fetIoer/wBx9uMDlmQNpCO2oBdN772brBcL2EqMPIHIDPqUHUAvB/Pn8sJPlJhaLUmsAkFuas0e9DbcfTCpiMKMwfTMyAFx2v3H9sJy/wAWaVFdmIoFUAulHHO22ClMpOjOjO6qxHpKKrso9q+bP6c4cFM0civCGGcglLErILra6+O4Pwww2SeblmeJU0RNpKjVoF+1DGrZxneA5tvu48sEuzaiDvp2X5/teCYnnQ/tP6ggy8eeP36JbFynQ+1mww2NWOcW/wDZn43yPV/FnSIAZYM1JmCCsgDBiI2P4l2J2PPPOOZ1tlTMIU0yNpkCCwzkEgkdgaGLa+w0tL9pvhwxMTU0jEcUq5d7G197wMdqZYfwE9Hl+mzQ3r4xtJGjIxUrvewG4HG/v/3wHE7rlVYu0dLZZT+H3HwKPbBYclWIdNBbUKbjYf2x0RSnj/7Lhl55+t+GcswyZuXO5Nd2Ru8sY4I90/McVivYelhnR2jJegysBtvfb4/7Y6uIUoxjY2T6dLBSR72O/fEB8a+AYjJN1PosaaApeeCKmsk3qVRX5r+eM2fojv2fMsOiGQGRlbV6Qew2BPe8WwsixLKSrqispGpOPavrirfBSHJZqlkZkd6ULuVA2vf6fTFoeHsynWpxncvLfTIHCRkDT50o2L+2kEUPfnFnBJOi5CXLZYNmCPPzEnmTG7N/7foOMPSIFb17gg79q+MN0UjNI8bMDXqdif6f3wXC4Y6UFMGuh3FYoVlpb2HJPOKX6/kn6Z1vOR+XQLB46BNhhe/xyMXNqisnXbWLUdsQzx30iHNfdszI7qWjKEhdx7bDt2wFeSwl0Y2vA9K7hcDmKg+kaUItiRew/mvBsmSkyURsA6OPVR/Kve8N+ZnaRi6q6Uw3O+3vWA9K6iWViraSLoBr7YQnN6QSaGwY/J3s/njxpDsr932O5sfX8v2xs08ZL0VZiRuTt2O/a8A3ZpTJuqV3Hp2Px7/8GNcsNK1Jwy6Ws6tO398GN5bOGOlEsM1tZJG3Pt/nAGsRggKoYi/U10fr3oHALawEMahSLWtQK77jjnv+2BvQ66F9TKStgahY2455GNJZomEgJfTWyk3ydjZ/Pt2wJ95guPVIa/mIBIruK7/98A5BxQpI67WpGMwkrBlBViARY/iVjMA3zL5ssqOpkiDEqoXTY5AHv/fAkjyybiRkRV8xj+IqaP6e3/xhyzISUssiHQHH4pP5boA4bSymMMEsA01ercncex23wSXQkrOgYMQqtH+NNiGrge+22+BPMIT+MHSM1oddywPe/wC/7YLlkfLR6mcSaDRA3LKKOw/TDPms+FRYjp1WSNRB3J2+eMYqtpXhAVaHI1GzZrk4YeqdYgyEUmazTuscdqtLesgAhFvliSdht74beveJst06GQ5xtUsdlI4mAdr7Vd1iqPEPXs31POCXMSNEoQaAGOlARdAfP73iBw8Q+LJ+s5tvIDxwC/KQNYC9ifklufpiPhpXcvKhfy9jZuv/AHHb3wCXld11kSNp9Sk/y7fqQB842Mi+YgLOo1baj+FbsgA81X9MFh1yNZsTXoEqnWfNYBK5O/Ptd/1w4y5M5jKaIL82Mi2ZgVNgahQ43ujdYaugZmBuo5ZXCIjAqWZT6t7Aaztybxa2S6DPFGEuMwgkeUD6TR5s+oc9ucFQJOiSMshZVQ0SQfS1Di7/AGA7Y1bpk8WklDEkoHlo41NquzxvWLIzPRnCKrBZJ49ISUgFbO/pf6X71gbOZeSJInSPT5Y1avL0oCdvxAd7G4B2JwRXWZ6bIUaQCSaZZGBCISEajSH2ohT+eAc6Hg1OFZSSVBZQSRd0w4qx3xPpsnJmn0SyK8SMqbrpZ2O1ajs2wG/HGIxJ0ZpfMVoJGnVnCs6EjTqOjmtRIuwCaAPxgoDKSlPPWanXh7UMNOnfnc7k0QexGJ/9nXiceAvFfSeudQy8+dyqRzAJE3ls+uJlJGr0kjY0exwz9N8NNHmmUOCGt0jSSmRlUFhp3BBIoflxiwvD0fQeo5WTo/WIryuYG0p9MsIBoSqb9JBFAj87GCLDn/8Aqg6SEK5fw51CWPRpuXPQRhTsAaGo9wcCf/1SqNbL4ZXVW7SdWA3ob7R4oDxf4XzXh/rOY6dKfOKBXhlCUZoGsJIo4o3RA7g/GIvnI5Mi1PCBqsKQ2pWoVYN8GjscPSR1RH/9S3VcxH/9q8OdHeR2ry26pIzXW9jSv7HE6+zv7aMn4rzY6Z4gaHoHWtYEeUdCqTAf7JHO53/CaJA2vHConaNEV4zr1elAtkKf6nbEg6f4mzP+ntHOqZ4L+BcymsEgi+drFA7HnbF0sdueMsl4Ky0n3fqozcecntnyXT53jM/pN6lU7Kd7O14jh+2HP5V0ynQcrk4Mnl6TLpLCCIwBSjmjVcDHPnhvxLHmstK+bzWiEABl8wtJmKHLsTqI5ocDjEqynVB1N4kgjRYlYApGoOjtux78cDC1F0ZHx74t6zmY8t0bq0E+YkUpHlIumxoW73qftzvi0sx0/r8vQUKdazMfVmQNJImlLYiyooVQ7Yqj7Lsu+X8RZBpZ9EpSRSj6SXSt7PAOL5UpKgVj/EAui98njfGpwcx5z7SPGfSevZrpPUev9S8xJgAjyIpQ1/u0iwf7Ym3hnxdnOvJ5XUM9JnCnrDvMCe13XtwMB/b74YVIun+IslGfPhk8vMGJbLp2uuSKq/bEV8GSfd+r5aS1JmYB7IsAj2BrYDvjO5Rak0b5uSTSoMl2AoJDCu2+GvNdPlhR9XqYDbsB+ffD1OTDIHf0+YAjIaCqeau6u/64yfMRiCR2ZFjUEgLwT3A/UY6SaVB82fJSnosOFViKFfpgI5wWuojyydSKaF+21fGJPm8r52pnC6Teo6QbPHGIt1Poc6ODlCYwNykhFflY/fCzEnraXPl2cuhkDaQCVBuxt3G2BHaNpWIUOooLqGx32I37XWGqWPNwuGYNSC2eNrA53P5dsJwSLsS7qAOOSOea3G/xtiKNdxrOpVtXp0stfufetzvj1Zolj2VQQ1Xe3ewB712wLLplzIlefUNwbHFckd/jAzuirL5RtjqLFH02Lq/3H9MAUwy4YgvGCD3l3xmGgKteqBSe9p/2xmAlmYjdW2RllBJUDmz27YZ83ljAkmhwKuqo1wLOH2RVEqndSxJJqyt+3PtiM9c6hHlcouYzEscccRLFyTpW6rb34wYmg+q52PLhmzLJFEo1Fi16FPzY9vzrFZ+IPFE0yFelqSGc07KSwPwPahzeCc91WXxPni+XKxZNLKI1ANzZY3V7+3asKz9EXNwwxqsjD8KaEIXfv7nGN1tWObyuYfNxjNlhOZNZLAkitjX9TvhQ9ERoZzCuhwKGo0XW+xIobjFkp4PKTFNOkSBzUqaAV2HIut/1wdmejQvB5qRxSwqljVGbCC7Wt9+OO2IbFQ5vpDQ5Vni3EINBa1USTufnT9OcR+aGXLTeXqJUNY0+ojSL2PufcYuzqvT0kyeZqVNKwDU6CnZtwbvcUDwdjikM15qaFUilNa0FBtqFfUC/zwUr050H8T1+akyPCtKUaudQbkjt+d46g8MImeyeWzCM8UOciiI1KFdFFkfO/wCVHi8crIySFET/AKjycsQF7C9Xfe7J98dCfZjnJT4b6dGimaSZ5IpV1MzHTYs7j0hQNgcBLs10+cJCZxOgRjDNPI9uGPeiBR3o7AG/jDVnOjvJN5Ktm0/iOGdISQdJO2u+dhuBtth1z2cdI3ly33WQsqsTGt6t79Ss1adI2B78YBlKwJLPAwRJiURFkC6troFdxQI2/m+awPwzdQ6MjQyyE64VQIYxGRpfcldhZAHa/wAzhskPlMoaeXKxOr0YwAwUAUQSKANkEGuPfEjzWYd8mBP5YkMaeYpU2dxS7b1YsHg3WGOV9QkEKmFokYMPvBkkZ1Zq1sau6vngjAhqZwk6RRzMjuwSxAoj3UksW/mFjfngHEm6BBGZcxlQV+6Iyayw1BQ4sA7e4O4NUffEezeYjyuTMkpIWL+IscJvQNA2FfzEA0LP74eOn9Ybo4zmbhd4TlYjRWMFdJqkKE7DUbuiBv2wP1N+kdH6R9o+T6blfEOWVfKMkmXmiqGSJG3oVZYAVYqiKIwp1b/6cOnQa26fmMyUFeWrz7EVxY/viO+Fc0OlzZZsvDFlIhL5Ss90tki129Njg135xfXhvq8eYgy+TkmjdWj1xyiQMp3Nrf8Antiz0c0dT+yjp/TY82c6c6pgQ2om2tbocV7DEC8ZeFovD8kLZVJGykhWRNTFzYXfexfFj6Y7I8W9ISXysxFEGZhobTYUpvd+5274onxB0L/V/CcsEvqlypePUK9BQ0Ae5uv0OFmEc8nO6czNHraNdOhj3rer5uz3xe32U5/Jtk4hLLG2biJikjdAAg2NAd799ztiheoomXzEiKugtIBQYA0NVgjEy8FdUGWmhhlaoy+oOY7O4F1uKG374iu0/A2XkHXshJEkcYaOQzIoAUDTsUsfP74t9YldgQzrtoIFH6YpP7IJVleeQzNKkOU06y5v1MLF/GLriZVVVkjBKkAELY/5WOk4yiv2k5MZ/wAG5/KMquK1bizz7/lzjnPw/wBUjiyaebJGJoJfLcMa3H4cdReJoVboeeVtX/SO5PpXexjk/rcUeS8ZTKyhUnjZ4qN+vm+2+/6Yzei98m6dS6dJLqy5kEaqIx+Ie6/FnvjeGKJ0/igGcatGtduBf1o4hPgXrQjpYAuq1cuexI4B7nvV4sSTKrMQ7SAnTbs12f8Ay6RxeOvzmM0hmsnl9QULYYho9IKnVf8ATA2fyFKt+gXYNg+kjm/ijtXOFjNIsn8SHXpBKGrBXkbHHrygqvrCh19IqrJH7Cx/w40hgfpUcjsEXU2nURuLIIJ2O3thul8ORSEOq+XLuzIOTuOTV84lcUSSGvPjJI5C/wA4vYnvX74GlQS5kMB5umyUY8Htv3usZ/nUQDO9Igit4pSRZWmIsbdiOQbxHc6hhDlwUEsYF1SgDYf25qhizer5UTZebUnlzC6BOoD8/wAuBiOx5Feo9LJzQN69KMdwWG12fj33xL85GpUFLFSQBxtslj//AGxmHJ+iZVHZbdtJIugL/LGYzjR96lnvuGXzGaZG1qTQX8UrE1pAv68ducVL1bpfXfEOZSXqY+6QNJS5dWpV2s2B2+T3Iw6RdN8V5yZ89mIJcysT3MIs0so9iQoO/bgXXAwd0rOz5GaKXqGVME6FNKzK2pXvYcU229HGPamYbcj4LzEU0VxsVdWVaFsCN9vpV74mOXyOahjy8oieQOg8mN20FUDC2Nsb4+LvDtlMtkjAZ8tm4YoFcqJFayQdmAXsbNbc74NlkgmycUTwCbNQuQYI1Ju7O112uvgY1jO03TdIykmaKwwmFTKJVkYM1kjezVfO+3A5wB1nISvAIpfJWSg0isNRawBq0puBVDf64kDZiN+iPLl/MeM5YsqCT/qEHcg9/fbf9cNWbT73G4y0scjupTikI5F77AAH/wDbEqxXfVstJLlXWaCaOdCGUFtKISSAQPmj+LfvWOdOqssOYnCtIY9ciMf9wDbjbawBvjp3N5bNNlPLjeOx5guMNT0NQ2WwRf8ANzveOfvGuTbL9XkndmdZ1LCQRFUbYWQP39zdnGWkURnCn10oO1i6Pv8Api6fsgzEea6R1DL5lHSSPMxlNOoqdY/C9MPTak3txviklUnXpB5G3ve22LB+y7qUeT6hm4ZZRH5sCt5gBOhlcAaiP5aZh7AkXgL+Oby08mYzYj8iSKEJ5QjFuwr0jc2qqSb45w3TukIaKFIUSOQAIF1Uov1C+BbXsd6wQ+e+8L/BLTMoVWqNQwYDgyECwRYA3o1v2w1yAGfLg6Jo5CQ4K0ZWF3t+Gr2BHffvgpHOZweS7R5pXedo4oSQZAP0O4+QebrAEMHnRRPAr3rj9TLpYHSQWFgEtd7GqC/OHISCbK5ctp/jhtAMiFfMCigrjfvvtTb/ADgSfLyzsfvGWDQylBIyAlSGjs1ewBGlRte5OAYs/EqdRmjWHyHvSgib1ugGrTYBAXY7Hca+aOC0y/3bpTGAJHGucRFid1NrpZxHdAtRRTq+SDj2XLedmFiMMcgVVhMUpCqnsS1ag1UBt9axt1jpkj5fLwyL5asJ8xmZLPqUlYxXA0tpHau/JwG3TeprBmGXMNGkRFzRopaQMCfS4s0DsdibvtWLS8M9YWdYoAXdEUeWFkVdJo6aGzWefbasUhn8tmMlCc1QZLDRvEpI03sbHHIWruiMeeDPGub6fIojSQCiNIk1diAACKIob177b4I7I6RnYet9PMcp0zCL1LIdRk7XsKvFWZ/pflZ7rmUeFlBlEsZI3AkUDb3Fj98OfhLxM3UkymeyY0uqhZSYyLW6vcgAn/GBPHPVox1CPMRN/wCIbKuk0ZHqV1ohvgEXWNX1Y5L8TZVIuq5mONrcSMr7e59z353/AFwh0TOPBOGMbFUa3j1gGgdufqMF+I3E3UxmXUqkkwfSf5gXBJ44IFfXCbZdendUkkgcTZdpGaGVW3eOyAa4J2GMq6a+zv7Sz4Lm6bmupxKOkZ55IMx91t2ii0giWjzR5H+3HVuVzeXzMMUuTMeYy+YXVDLC2pGUj8QPfHCHhqVOo9C+45jdYJWXUyHVGCAdYF71XH1GL7+wfrrZHpkvTer5kplJZgmUSZ/Qsrf/ANpj/K9fh5DHGpWV39ZiV+g51KGpYGrUe9Y488bvI2RyHVI0Ltk5gDpBNWe5B70cdlZ6Iz5WePYmSJ0GrYixtf8Az3xyP0rJL1nNdW8PZ0lXkR0IughVq/r/AFw+gF4a6xlz1ASmbTDM8boCTRsUdtsdAZfq8TZJSJ2lkNU4okEcivfv3/bHF+S6t9yzDZKdtLQuygEFtRFgihxRB2Ptjob7NPFMfUunpFqJIGqNdQKjatzzZBxfmpeLIkPnxB0JJ0lWEd6tI7fG5/PDeJHMikvIrDctX4W9uOaw7Jmp08/RSqVsqtXpHa+94b81MLEqgbny/WeN7J77nfHdhmVmKxaRUUYPq3G1gi9Ptxv9cex5yNZpNbgRotLpHIHJ+m+GybMxEDyGQRhdRZRVC+P6jA7eeJ4hGWjSRbUqO452/Or4wDu7CV0dxqVyVZtO/qNn9tsV3458S/6GgykEekzyaEBejRuvy74nyzFmIWR0WO6Brjv+/wDXFafaj0bNZqfpufhDJDBmUVkIJ2Ng7e/9sY+uLOpPkujq+Sy7ELbRKd0HtjMF5TMQfdYK1geWtDbbbGY5tq3ycw6C80WdQwTRxLJ5etGKMSqrEX1enUdR1GwKI74fem+IMpn0OV6osebEjAI9Bg4K3pBNVRsDbsb98Qzp32tZLqHnQ9Xy8WZdYi5YrGpcsdJBGy12okE7bjfEjy+R6N1GfLz9Mn+7yLsiRaIw6g2FsEjYirvaiMT28E1XKDJwCbJKkcJUFUjBsD5ugBxhpzueXNCJsyMvHmJHMygq1LZo21bAnir+mGfJDqHSM66rCscMruIlA/6oa/nfSAKoCxvubs4ZtOoZOOWBry2acAagaHNm7206a/8Ad+umMpGZZs1lQ/3WSOSOMj+ABZHAFgcVwb7H3wyzZqNMokmefzZhIrDzDqVSDRUKO1Wed+MOidVMsSHMlkjlDRu4bUrgKSaYg3pGxBoYjWe8vLRrLG0TP5a+XEukHQzFgQp2sbb+xBGMXrU40adz5OlYzl3j81CrtHbGhVdyLA2rkDviqPtJ6WZcrHm4ZEXygbRHL7VpBN/Hcntic5jqLeRD9zPl5cRtFoI9NIwvSt2d62BskfTHmaeHOZCWGfTI6kIzaRTR2QRfcH53B25xFc3FipALcHtvQB2w7eGc7NlOsZN4Cuolo6JpXDA+ltuCdqx74h6JmekSIx0tlpZGERjVqVh/LZJulIPJ598NkbskiOsjRsClMnIoggj5wHSMDySZWGZoJZ/MYCNAlRaaDDvQTbV6jYPfkBeGWaVEhGWkSB2fy4dLxqpUilG5ILKSdu6n4xEuh5lzA6iN4Y/LYSRichRqlAs6dekAg8UdRPY4f8xFA0M+VknaL+LcaFSGYEBgygsAR6ifetsB6kh+8pNmfuaoSzXQBCsBVBdj6lFkkb0KxssrS+ZJ50aQ6gJC6unpYm6UAjgL+EH23BvGZVomaOTNyGZn9U7+UWVZDJYDAlfTdEVxWxxsqNl58tF5dZmYRsXIDa6DAEEC6NAE0TZu6wWMy0WWYxuo8yGRQ8UqzlNRJFutDZxS9iawt9zin6vDGzmLOQoINUgCx1QYqptQUBYE3ve5rbGxjR822Wysjzasxo0qgdVVQrWQao2auxQGCBk0zAjciaN5iGcSKqnUSQC1VqFAAHsB35wDDnw2T6SRLKYTl5AGliB9SgsPXfBFADttuODimZs62XzU+imZWWQAMN6OxsfTF8+JYJc1kRMXtkbX56/ijJ9kHBur1chicUB4jy/3bPm9wVGi6P1v2N9sBdf2WeN0yxgyuazH8OPzBLGq3ps61Zvj3b3oV3xJftFklii6Z4ky7feII44zmfu3qVo3sDufnt3vHM2Q6rP0ydZsrIySowKNq/8AKVb9jjpv7P8AxJH4p6Oekt5aTNFUCWLkjayboelQBQIv274Ec3dbzhfPHygNCkgKa2F9v1/bAmUzpy8kR9WsAm29QJaxf0+cTTx54GbpMzZrp0jzZKIsZQRqeFa2Zu5W9uL2xACKKh9P4KtdgpO+1H29/fBV1eAesed07NOHXzEgRdrBLLz25v398H+FupSTZfqsDyyGCJgYrkIMbOTZBPyOex3xVHhfrR6Rn4jmJHi1qUm33pl25G/YYnPh6cHNZgRuQmZy5ZiUBu+Dt/T5wSuy/se+1GTxb0uXo/WHH/8AIOmJ/FPAzcI9IlB7twH+d++K88eZYeFPtVyucV/u8eddXXUapmFWPq231OKmyGe6nkc/kuu9CzawdRylvCV/3DYg3yp4K+xOJh9sXjPJ+MPD/hzr/T1OXz0ZaLN5IEg5aUEHTZNFQy+k3uKxd2eoq77X+kyeHfHOckgY+VmWGbRlBTSHHqAHOzX+vGH77IPFkWQz6QTSxIjp/EPBN0BqJ7jthf7YcyPEvhTwv4hyjK8rBo5ZaGkhqPqPP4kr62MUv0TqDQ5yMRMYE0nbWV322/piD6BRZxJVSfL6ZI2OrWBQYEfvzwMDZidlzDSMJA6DQ6RJvudh+fc4hfgDqgz3h+B0zEkjqFIG/O2qjuOfffE1+8s7hUZmdgWJ17AX7fkecdpXMFmRnZgH6bDC05/AuYcqL35oce2GbL9F8Sy5mMZ3P5c5ZqJhgjACG97J37fviXZaM+VE9s1CyRtV9q9v+DGR3EY2Lt6k/GCfT7A/vz8Y37oQiK5VWSZnlZgoJoKLO1j2rveG7xB02TqPSpUzDB2Qa0QqLL8ahWwoe+HiSN6jGpplcA7Dc7k0CeD+2B58vGcu5TUNQYAj2u9/fa9uMT64sV1D1WWCGOJoSxRQpazvQ5xmI5nMxmBm8wIph5YkbT9L2xmOOLrlnPZnNZDMysrNEySMEoAHUGBq622/esTDwr4+zGQcwZmbXlHpZQ0eovejcA0BvXcDkn5kHib7MoZo3n6fPmEaZyqho9UUVEKwZzuGsWL3I2xWPU+gZ3o8gObTSo9UR2KSLd+n32rb4xlvddJdN60nVenZqL7vHnMsHVw7W5NqWL0boj03pNbDYYf8lnIUgRen5h1ysRRUiXL6WjFB1IGmmcFjwe3BxzR4Z8aZnoeehcvGUSMKI8yloSdxqA7XR/Ie5xfnTPEcXiTItL0uaHLvLDpGwUlQFUlgG7EsLs7D32xdqJO33lUGjL6DFqkOpiTeorrAB3vT34B4xHOs5jy8rnHhglgBjBjjWbelayFO4DVsfYCsbx9TzkkcuUziPGyxhJFaFZNYBoMAnG5N9txgLLziVM5BM8j5xkCiOFRIkgAAs2oo03PBo+14CPZiSMxZhpXYJEQ0ksrWwQi2FUdLBgNWw4vDD0XqmdjzGZhzuXjykkCmNGaIRay5J8piVosPUbIA9xW+JK2Wy82Xmy+iSWZHZcyCAqAbgWAK2pjY23O9HFe9QzUfQus5rzDH5UTBXdgxu9QoEUWIvar2A7E4ijPEUUObyohzLAFIppvKBUL5q1TbAnWNxVkMFFVeKokQRyOkciShSQHXZSLNEX8YtDJSjM9JzWXjkcCFpWjSOQM0OtLRwSbsHUCBf4hR2xWf8bPvIzIzymQKb3Nnbf8AP++AsTwp1iSDpuQLmSdJGKyCJgXKkhDrHJN6SB7LZ98TLL5/MRxZeNyY4aUeW6t5qUCC59R3ooQ17g7cnFReGeoPlJXiiR5S+6iBSJYiGFkEcdrBBG3A5xJup5yXNnyS0mRysiXFGYvNlA0UNG5FV2BLD5wImc/U4Mn5idQmCQo6iRhOxEgkUkMEChiRZ3HYHvVhT+MoPvMQ6fFnuoO+qOhWXbzBzolZtVaaJ9Io/U4a/DsecyGTzLywwt1RZFWc5qLzppGZvUoNlNqsc8b0TiZ5DLpLDmGV0l1a68pWE2pb0sVcj1AHnYVXtgFo4OtdSmzWX660MTywASZPKMWJhBDU0v4mNsBS1uoBsHEryXRm6RlMxl8xHozGtI2miUFCRVBRe4qqo2SL23GI1BM0DZNJXEcKESxsWVSCCDqCE+r08GwdjeJbJmFzOQCnMMJ2npERtK7GgW02Rs3qBPyCN8FNfWRNmFkl6pHGUJkOV1T6Qx/lJO1gEcg36q98UV4+i1Zpo8wqJnS9u7J6u/4mArcg0Rd3fvi9uuIkWaeRIw0ckeiSJ6UuNRIG9En/AMwuxVkUcVj4zykEeUmVpWWJFty0zEM6gAqWI30grXvYrBFNq2miDV0cS3wX4mfw91jLs0piiLKvF6TvTVztd2Dz8Yi0sIjPlmhwBuDWw7jbGuo6O+rVuedt8B1jmPuvivpC9VgjijzGoLmAshca1UhtQ2Pq73745/8AGvhY9AzMc2Wj/wDtucJaAMrWpWiUN/Xbfg/GJ59knjOPJXkOozBsvrWJ1NrGsZv13RAKnaiKNVieeMvDmX6o2c6XmjJmIZ4jJBm430qSN0kqxQsDkdiLwVzAskmpNTWbV9Ra9wON+O36YlPg3qEkXUY1ZwArEKa2F7af14wwdQ6dP07OzZTOI0Oay8hEisvJr34Pej7YcfBHT36r4lyOTjco0rktZN6Vsn864+awFj5nr56X1GSGKDzjI261Wi96+LI54xHvFPXHjaeNMuy5fNxg6mC/9RTW1d6v8jiR+N48l07LdNzXTDHpSSaKSOI/9Wgd3Y7lgwP71itvEeeaaLLxgtSyOzqCT6j7XuNgP298Eq9/soiyXj77O+ueHOpSRrJDI6xBwVCh6ZHFc6H9sc+y5LMZHqRjziCOaBmizAkO6sGrT9cTz7BfFKdE8d5KLMKTB1CL7m4C6iGvUjAe92Pzw8fbx4bn6R4vfq0GWMGU6vGZjob/APKnpkBs910tXzi/iLG+wjxGkfS5chmpizqUMZrUyUPfteLtjGlisY1SDf1c2d/fi8cjfYr1AQ+KsrlpS8OXlYsHjHqWhVEXvYJx19FK75ny4WDwuqkgMC2x/fttjfx6xSymRkfy9YUL6YySCTyB9NycLRSlcsVjR0Cr6vVfI9yPn2wMkhWZZJW7Uy1uf+VzheRnWD1n1BajOqyPivb/AIMdYjxsyscDOkVg8+Xtv2P03x62qfLxtGVSS+WUjbuDX1/PGkvmZhFVaLAarUg9rO/x/wA4wVBllBjglvTLbKXNhh9e3etu2HRS+d6FEc5mCIzRlatvnGYsOfpTmaQrJCAWNCrrf/04zGf5a1zP0XxbDCZZ89m8uYBKInKgMshH4XA5bdiAbqwFq9sSZH6b4hfTnDkZcrnZXhLImsSUQU0EbLd3TAVRINViIZ3JRxNPMjxnMGRtGhN49Tnew1kAqAFJ5PzgrpQk6e+UEQNCFUePzAPKduVJB3fYAdhv3O/BpEPG32b5jIGTP9CizWbynlNIyuAWjSgFqiSw2A99xV4h/h/r2a8O9R/hyGKMuBKJU1LYN7qeRYF8cDvvjpHoUzJ0sxZtVzqRSg/xUKJSi1N6brvuCN/YjEN8ZeAoOoRZzqHTzl8vKyySCHzDWrTypcnuSSASQTsL2wD103xBkvEeVyueMAy2ZZtXns7FSL30jbkqfSTtjabyoczlZM2YlkmQ/eDl7FSAUbB3v8OxH4u4GKs6TkJ8hNLJEr7ZcKRC5cmh6gR25q/bV+Vh9L6oOq5PVmlzDyQyLIxKqoRwPUDxX8o+CL98ARG0GYniUEfeHUODCVsiwbVSQSvpsjcijWI3476L96+7y5FpZ445rDl9aoNS36Gaye187c0MSKZlgzcSTy0ZEaM0NTkE/iNCgLv1CyQcKZ/LJm+ivNP5plXUxB9GoaNtFigp09xtZ3AGApmKFun9TaJyyrJ5tIyj0kA3YsngMvxV98NOSz6ZLxHHm4f4EX3rVuFJCFr37Yf/ABg2Vy7Zb7uU83WzyMgHm7gelj8XRPBK2MQy2UhhYaiD32JwFodV8Qp1jLFOhSRmWPLmaWXSEHmOCh9TEHXuT8m+TVGZLo+XyC5dIo0inhRoJHizHms5k4AG/KhqVT6QWscYhngzPIks6kxpMqqElNlghJ1mhsSL2PIJvesTGMmTOt5TJGWdQvmQ+WY3C/zlaP4aY/7ronbYsPeSzDZiIS5VY5YJFeaR4zJpVmOnSLJAW6AIvfexWDlzLRZuCCO0jky5dlMCsNBDeoISCtbKTfwTZvDV0VFMkMZuKbUt6o1K5YqbHmCq0AHTQB3G/OHafOSJmWjVINBekM9EqrOBIxLcGz6QKscgYH6L6d1dJngca9NF4mAtRbFtY0i471KqtvqUmztiVdMkjDRS1HG8gBKt6dxq9ZJ3Y9jW10ffEJgkkmzUc0rtOraZEllNKziTsNwLJ2P1uqvE5yssbpmDOYZRJI7NR0MhUawDQGkqSRzq9wATgNDIs2Shmgyq+ZJOsKqIdTixdqWv1H1XR72a2GIH1jp8cbZuSJJc1KFTcrY3sUBditNHezz8GZ5jJSZSdxIjtIlyM8+Y16aAoqAb1AEWABqu7JFYYuuRifLy6f4WYeMO8krUSwFkUSALrVvzzsw3H6526vlvumedCyyEUSUjpdzqofkR84CJC1Q08g0fqcSnxplJI+oB5MsYCiiOc+drGs9uSdvwk96xFCLW/wAJH74IfvD3Um6dnUzEauRC6kKp5bcqT/7hx3x0x4K61B4g6FFkcwVmaJgkDyMFcC91sbMur0m+Cw23rHJkcpjYtQsHvixPs88RNkM8ghkkgueNgUcaSbs2prURWxu7rnaipB9pvhdpsrL1oRrFPlC2XmVY7JiDEByR/Mrek/H0xAPC3UoOieIun52ZdMEMxWUgkMUYab25rk/njpnr8OQ670+POpHJKvUovLzzFVPmFhbsdJG5BHbkA45Y8TdEfoPW890+QSDynKoWFB1NkH9OfzwRZ3j3M5bxTn8vl+nTmZIIpQJAmiMzXsANidhzVG/zxWniBYFOWMTqzvCDoWUnRpNG9u+/5Ycsvn1PTunTTMYRBmDG1fi0mjuT9P2xG+rZ77/1PNTItxvIWUMbKgm6wWl+jZ9+mZ+LNZa0mgYSR1uS6kEfqRX546t+2TKR+L/s0g6rk2ZlycUfU4l0UTEy1IpPApSa+mOQ8vIsco1k7WaXkHet8dgfY/mB177Kclks0DMn8fIMJKJIJ2H0AYY1PU/HOHg3qUvSPEWXzMMjI6MANKFiDVaf/nHbXh/PnPZLLyRp93cxrvyLP+2ve+McLdX6ZN4d8T5rp0rtHLk52y5kI/FpJAYfOmq+uOwPsyz82Z8NdNMiNry6LfrsXW9/P9MX4uU+uLFaWNHLsyJobTIou7PcnHsX/SmR9NqS6muPnfb9MN5nkTzFEKuxWwGJbStcVwO9g4ClzcsSwR5ZC7MdipogXe99gP1x3cz2swlgRSSCrhioXUGGwv4743853ZQSkcuwCsoP6fNDEWzfXuqLPI0WReTLXTEsBsCOFvknvgzpnUc5Nn5U6rkhCYiCmm3DEmt/ocZ0SBslE7FvvaDUbryTt++MwYmfhCKBNq25B5/bGY3g4RzGTzaN69AQyrGuUDHUS0moMB+FBSgUeAa+cGtnOuPM2rMFMvCSrNEA+zAhgALsUw2NgdjticZzw/lM+uZ6j0rONlJEdCgMg1MaJddQU6+1XsvHscQfO/f/AA51eGbPpFLCslRzCN086kJBQliAFLEe1g48jomGS6nOmmTO5YwNAHl1lNal9QsqVIoN7ksCFI+j1F1iHN2itCGzEa6EX0rIL50n0li8h4+MMfQcxkerZMQ5hFY6mZ3SMOEZdQIGoWqjmqJHPF42z/SpunIs+WZM3k5V845kINmMllzYBOw2oUAbO9YBy6v0OLqyyZnKRmcQqzRxtAuqQkbatwrUa/fe8Mb5D/S83lMzkoPKTOABo9LHyATZv1aiSQ30vmsOWRz0eXmUx61SUuiSZeZmEOzEA6gbFKTYsHVfcWdI2W6nlQkMsMpC2jJGg8ty1Egt23vcWdR7YBl6pnTEuZRVmfy5zGHg9MrEKdVIBsCHFjkgAkbHBkWeR+muUYSNFldShyH80/ysxHYht9uea4xEJ+o5ZvEHXoYgrQR5giEupVJCSqtQA/3A+nbar7U79AzmYfKvIzFcwyKzkRlR2pyBtpYaSCCrb7WCcFVl4+dl66BJE0QeNZULUSUdQRvzwO5JxFYjpANWRRonE++1CGBJslJDKGMjOGXXtQ4PzRJG52NjEA4BAJoEcjvR2wQvG75fRNFaDhW74mXhbqaTyLANPmxwltDcs+5Lq1EcKAfbUSMMH+lHOwg5Bg5WIsSyFWkJfZe4sA+/Hzthvhmkyc6yeqN04JFHY8/qMBc+UzhUN5jLE0nlkTTSrIFVl325PPBIGwNjnB656aSOXzPvOY+76mid4TqGpSrOXqiLK1Y2o6uMV/0DqkvUcrLlYzrzjr5jrVvPKzlr9rBA359R+cP8k4cZfLswmi80EFXYtCpW9RQ/9Rr99tNe+DR06fmEm6lGYEeLKkCWkdS5bTTk2SBZBFCr3r3xOMpmZYwZJ2AAJkiRl1IxGq6JNqA2k2wFCwcV8mbkyssaRTJKrMAkjN6XcENY9Nh1YuRdk7g3pBMrgkXLZSKZcvJ5uXjBd10rFIRpUhrNXqOrVezXyMES8xtO8bms1KZKmdwAWavwtpsCxp7HeuarAbeHzJlZjHqzE0LKriaK1KhbcG9lpQoVuCASffEfj61Fl441lWLMosdZGNcuYwoLWf4ahmdWZRbCgGo+nBiZrPdeXyIYlykGYfVHI0hcB1VQAq6mjVrIPMhtja3gK28ddNy/UMhnc/l5QZoSXbLJ6SoDFRZAAYbNRUnbfcHFTSKDpsg1+A8bEY6F6p02PJZJ50b7whiEawbKKIYHSpU7eqwNiD+GgdqDzcK5eaWMG11HSfLKhl3o0fg4IEo6iO1bbYKymZ8iS+QKvY1yNqH9cDA1qP8A+3e/b9sLQKolVZCdDqQ29UBuD+uCx0R9j/iI50yZHOzp5OYpfLVgG2UBWK3saIs1+EG75wN9s3g05zIvnYYkkz3TE/jSJZMuWJvUANjyG24FgcnFYeH88MlLkHSOUfdnkf8AEpDAEMr2diy91vcAcY6S6d4kXq/QOnZ6GaN+oxwMJVVSrFAfSzAgUKI2wRyRJmWbp8+Xl0OfPSbWpBJGmgL9v6YanHc2diLHb42w+eKOmHpXXs/kzEkUaSMYtPZSSV/sPywxyWAxYDSrX8E++CsUEm6NAVV8XtjrD/6e5JMp4MzEzIjpJ1CQJHvXpVLqvoR+tY5Xy0bSFVQanZgFVRZY9qH9Mdm/Z305PDXhnJdNmc+ZEHfMsGBXUfUSoHO599sa+UUr9u/SU6b44/1PK6RH1KJZWr/eo0sNve1+hBOLh+wvqSTeG4U8qZNbkFnj0rqINkH2+b5xDPt56Ys/hbovU2LtmUzzRhiptgyWR+w/THv2C54qkEMTSecGKSaV9KEcDmt7PbDcpfXQwURgLRpuQu2ocDf2v3xqmWEcaJbemYkKvIFj+bGsEYkXlNTIzEsQattt++FvKk1MQdaBQwUHZRzfP/Pyx3nHMM0WhZPOUg6SDpXkhq02eO22F+nugm1Sp6mQElL1UDv+9D8sJwFszEzySKRNLaK5Kknk/nvh00F5uNKSEraruf8AzA+2GQaNloVJDLLYNGkBxmCFzGhQv3VH0itW+/z+LGYo5O6TJmcgqRRiOVobky7egaUP4LIIBAPG38vG9iQnr2V6hHmIs7lg7RA/wJIi4k9IYsdPp0n8QO+n5G+K7PUMzLlopJJSxaUoQeNKICo/Kz9Bh76QP9QiiE+oebLI5COyqrRtpBC3p4QWKrnbc48rodT4JgiEuZ6HI+pB/wBGdim9klda2GUalAO5HHGFunJLJGnTOuwyQTTgRm5ABpptTK7bWb3DaT66AvEWi61mOmyouWVP4Jcxk6rGnWR3+N/fE+6XmP8AVulwS5yGBjOQZF8pdJJJBNH4wEPz6T9Jzsi5iAZiGRWVI6Hlkg7ab/CQygaTXv2GHLpumXOSw5pmEjIpUvTJzpW7UURQPHc4M650nLdQ6ZBm51Pn5QssbBrtVUHSbuwT/U1WGTo5bMydCkLGJc8fMmjjAVb1uvH0VdzZ9I3wFd9UzUR8aeKlgcmE5mQaGAuRlcbitgNQJ+hHth18IdUmzCB//EszyvZsEWRQBIr0ccDk2RQFwrr2cmHX+vOJCrzZty7DY7yE7YknhbOSLmMuhp1WXWuqzWlLCj2Fnt8ewwV59o0KLJ0UlQVMcp1AfiWw18AGi3NWe+IPGuoD+IFs2bPxd/nRGJP48dn6pkS7M3/hFIBYmt24v/nGGTpiEZyMxu8bA2GU0QaI/vgh9giaSLTJmE3PmwpT6wRbbXVjY9xz32wN1Ppn36TzsskUczh/4CMpLadyxZSQTXFYWgnbNS5uOcB0kWMFbIC6pvLYjfYso3xplJVyeViZYIZQQraZV1AU24HcA3vW5ofOAj8WZfKEPl20sdySSLA7HE/ynXMtnZss+XzUr5mOFlkcwjVqK7HfbUWBJYdvjEF6kqxZo6FAFjYDbck8YcvDMkuW6rl5svK0cgDuCADuqMe43HII9jgsWpDLl4J4xl5JPJyjhZASEkAGrcWPSbFWbUEkHnG0mR6pmzlZIJ44smEjDyIULpLpa9YKsykmiCgNKdiu+AtPnZaF5CSDJBCqDZUVnI2rfauf67U9LmJZ+ngSyErp8wrtTNqNEjg1/c3YNYK86bkpMm0cscIljmCq/wDFUurMxMbFrZ2OwtXJ7HbcCbdK6kUR4gfKyfmeYEVEY6tCqESifLF0dwNVk97xFuiuuf8AuU00aAZwqksYvTpeTSwFkkDe9jyMPeSnbO9LaZtMI1SwiOJQqjSwAf31gAC7wQln8yNGakkuFZFWVJEkXS4AoqysdrF6jQ3UDcC8c7eIFDZ6dyHQSSMyI/4lXsP/AEjgYvvqXUZSk8UCx5ceVJmGZEBZ3TUoJLWTso/fFG+LVAzUEi2PMRhpvZRQJAHayST8k4Ij1jbSKBN74UjCuEDoGJYWP9xOxwj2r5wtl0B809wgH6g3/QYLDpDmDEYWhB1eWiyWLG/O10LPfg+2L0+zbq4nmy+XzIiVkWhFmYyCWde5W9Ng7DY1p5vFHCRsxEgfSE3UIqgAegUdv19rxOvC+YOSz8ksKjzEpQzEkkLRW996DEXzWBTb9rPhyXoXieV4gz5LMr52VmayJEIrSW7lSNP00++K5oIWU6QCb1c9u4x1X9qHS8r1b7K4c1nYlfOdKzuXTL5gAB9Mp0urdiKqth+EY5d0AfeNgSpIGw23I/pi2Yixfsh8InrHUcx1LMKrZXIMNELMV8yUjtXspJ+pGOknijymTgHleToiAGggmytnfnsL+tYrjwd0+HpPRcoMiGiEmXjmcBuZG/E31O36DE/z5eLp6+XIytLImtqBJsC+3esWeQ4pv7dut3lOl9K1lpWk886xugA0qPjc84E+wnOyDqsx0KJYylKuxkBPq/QDEA8fZ2bP+IupyZly5hcxpZJoLYHP0GH77Fp5R4qQJIyBI3kpf5iu4B9xiartfp6pPkooyVdPKs+vVweL+MEiBJI44tDMIwSG41C/y5/ocBdCCLk8jGI0qQEk1R96+l9sO8cSFpWI9bNRPuAaAx6Jxy/TZ5L5PyEf1swIC2a+N+O/HtgxTckfky3AWJcy0eCB2/PHuZQBc24G8aFgO17f4x7koY45igRSvlaqI71f98UayQSvI7LOpBJIIR8Zgj7zINgx/U4zAf/Z" vertex="1" parent="9">
                    <mxGeometry x="180" y="37" width="87.18" height="126" as="geometry"/>
                </mxCell>
                <mxCell id="8" value="Vertical Container" style="swimlane;whiteSpace=wrap;html=1;" vertex="1" parent="1">
                    <mxGeometry x="414" y="460" width="666" height="420" as="geometry"/>
                </mxCell>
                <mxCell id="15" style="edgeStyle=elbowEdgeStyle;html=1;entryX=-0.014;entryY=0.617;entryDx=0;entryDy=0;entryPerimeter=0;" edge="1" parent="8" source="4" target="3">
                    <mxGeometry relative="1" as="geometry"/>
                </mxCell>
                <mxCell id="16" value="Кеширование результатов&lt;br&gt;насышения" style="edgeLabel;html=1;align=center;verticalAlign=middle;resizable=0;points=[];" vertex="1" connectable="0" parent="15">
                    <mxGeometry x="0.1269" y="1" relative="1" as="geometry">
                        <mxPoint x="94" y="1" as="offset"/>
                    </mxGeometry>
                </mxCell>
                <mxCell id="19" value="Кеширование &lt;br&gt;изображиний" style="edgeStyle=elbowEdgeStyle;html=1;" edge="1" parent="8" source="4" target="2">
                    <mxGeometry x="0.5574" relative="1" as="geometry">
                        <mxPoint as="offset"/>
                    </mxGeometry>
                </mxCell>
                <mxCell id="4" value="" style="sketch=0;aspect=fixed;html=1;points=[];align=center;image;fontSize=12;image=img/lib/mscae/Docker.svg;" parent="8" vertex="1">
                    <mxGeometry x="36" y="114.5" width="50" height="41" as="geometry"/>
                </mxCell>
                <mxCell id="3" value="Redis&lt;br&gt;No-sql база данных" style="sketch=0;aspect=fixed;html=1;points=[];align=center;image;fontSize=12;image=img/lib/mscae/Cache_Redis_Product.svg;" parent="8" vertex="1">
                    <mxGeometry x="546" y="40" width="71.43" height="60" as="geometry"/>
                </mxCell>
                <mxCell id="2" value="S3&lt;br&gt;Хранилище изображений" style="sketch=0;points=[[0,0,0],[0.25,0,0],[0.5,0,0],[0.75,0,0],[1,0,0],[0,1,0],[0.25,1,0],[0.5,1,0],[0.75,1,0],[1,1,0],[0,0.25,0],[0,0.5,0],[0,0.75,0],[1,0.25,0],[1,0.5,0],[1,0.75,0]];outlineConnect=0;fontColor=#232F3E;gradientColor=#60A337;gradientDirection=north;fillColor=#277116;strokeColor=#ffffff;dashed=0;verticalLabelPosition=bottom;verticalAlign=top;align=center;html=1;fontSize=12;fontStyle=0;aspect=fixed;shape=mxgraph.aws4.resourceIcon;resIcon=mxgraph.aws4.s3;" parent="8" vertex="1">
                    <mxGeometry x="546.72" y="230" width="70" height="70" as="geometry"/>
                </mxCell>
                <mxCell id="13" style="edgeStyle=elbowEdgeStyle;html=1;" edge="1" parent="1" source="4" target="6">
                    <mxGeometry relative="1" as="geometry"/>
                </mxCell>
                <mxCell id="14" value="Насыщение оригинального &lt;br&gt;запроса разнобразием" style="edgeLabel;html=1;align=center;verticalAlign=middle;resizable=0;points=[];" vertex="1" connectable="0" parent="13">
                    <mxGeometry x="0.1606" y="-2" relative="1" as="geometry">
                        <mxPoint as="offset"/>
                    </mxGeometry>
                </mxCell>
                <mxCell id="17" style="edgeStyle=elbowEdgeStyle;html=1;entryX=0.5;entryY=1;entryDx=0;entryDy=0;" edge="1" parent="1" source="4" target="10">
                    <mxGeometry relative="1" as="geometry">
                        <Array as="points">
                            <mxPoint x="638" y="350"/>
                            <mxPoint x="620" y="530"/>
                            <mxPoint x="570" y="380"/>
                        </Array>
                    </mxGeometry>
                </mxCell>
                <mxCell id="18" value="Генерация &lt;br&gt;изображений" style="edgeLabel;html=1;align=center;verticalAlign=middle;resizable=0;points=[];" vertex="1" connectable="0" parent="17">
                    <mxGeometry x="0.2316" relative="1" as="geometry">
                        <mxPoint y="27" as="offset"/>
                    </mxGeometry>
                </mxCell>
                <mxCell id="20" value="Telegram" style="verticalLabelPosition=bottom;html=1;verticalAlign=top;align=center;strokeColor=none;fillColor=#00BEF2;shape=mxgraph.azure.mobile;pointerEvents=1;" vertex="1" parent="1">
                    <mxGeometry x="457.5" y="930" width="35" height="50" as="geometry"/>
                </mxCell>
                <mxCell id="21" style="edgeStyle=elbowEdgeStyle;html=1;entryX=0.5;entryY=0;entryDx=0;entryDy=0;entryPerimeter=0;" edge="1" parent="1" source="4" target="20">
                    <mxGeometry relative="1" as="geometry"/>
                </mxCell>
                <mxCell id="22" value="Экспорт&lt;br&gt;в телеграм" style="edgeLabel;html=1;align=center;verticalAlign=middle;resizable=0;points=[];" vertex="1" connectable="0" parent="21">
                    <mxGeometry x="-0.2954" y="-2" relative="1" as="geometry">
                        <mxPoint as="offset"/>
                    </mxGeometry>
                </mxCell>
            </root>
        </mxGraphModel>
    </diagram>
</mxfile>
